<svg xmlns="http://www.w3.org/2000/svg" xmlns:xlink="http://www.w3.org/1999/xlink" width="500" zoomAndPan="magnify" viewBox="0 0 375 374.999991" height="500" preserveAspectRatio="xMidYMid meet" version="1.0"><defs><g/><clipPath id="8645fc4a52"><path d="M 47.765625 48.53125 L 327.515625 48.53125 L 327.515625 188 L 47.765625 188 Z M 47.765625 48.53125 " clip-rule="nonzero"/></clipPath><clipPath id="2666450132"><path d="M 47.765625 187 L 327.515625 187 L 327.515625 326.78125 L 47.765625 326.78125 Z M 47.765625 187 " clip-rule="nonzero"/></clipPath></defs><g clip-path="url(#8645fc4a52)"><path fill="#b52414" d="M 327.421875 180.386719 C 326.832031 180.386719 326.296875 180.386719 325.722656 180.375 C 325.675781 180.28125 325.628906 180.175781 325.542969 179.992188 C 326.113281 179.917969 326.640625 179.851562 327.308594 179.765625 C 327.289062 178.941406 327.183594 178.113281 327.097656 177.203125 C 326.628906 177.214844 326.199219 177.222656 325.695312 177.234375 C 325.65625 176.792969 325.617188 176.363281 325.570312 175.867188 C 325.992188 175.789062 326.421875 175.714844 326.90625 175.636719 C 326.726562 172.839844 326.21875 170.097656 325.855469 167.25 C 325.304688 167.335938 324.777344 167.414062 324.203125 167.507812 C 323.878906 165.253906 323.394531 163.117188 322.980469 160.871094 C 323.535156 160.757812 324.050781 160.652344 324.625 160.535156 C 324.480469 159.734375 324.339844 159.027344 324.128906 158.234375 C 323.652344 158.3125 323.125 158.386719 322.464844 158.492188 C 322.160156 157.824219 322.085938 157.078125 321.882812 156.351562 C 321.683594 155.625 321.519531 154.890625 321.339844 154.125 C 321.921875 153.953125 322.398438 153.8125 322.992188 153.628906 C 322.914062 153.21875 322.847656 152.800781 322.734375 152.3125 C 322.171875 152.425781 321.644531 152.53125 321.082031 152.636719 C 321.015625 152.550781 320.949219 152.457031 320.832031 152.300781 C 321.378906 152.113281 321.882812 151.941406 322.515625 151.71875 C 322.054688 150.152344 321.585938 148.566406 321.121094 146.992188 C 320.660156 145.347656 320.019531 143.773438 319.476562 142.160156 C 318.933594 140.589844 318.558594 138.9375 317.679688 137.515625 C 316.800781 136.046875 316.304688 134.441406 315.589844 132.929688 C 314.84375 131.488281 314.386719 129.921875 313.554688 128.507812 C 312.734375 127.039062 311.988281 125.507812 311.195312 124.007812 C 310.402344 122.558594 309.6875 121.066406 308.808594 119.664062 L 306.230469 115.289062 L 303.527344 111.132812 C 302.628906 109.699219 301.585938 108.363281 300.621094 106.976562 C 299.675781 105.652344 298.882812 104.199219 297.851562 102.929688 C 296.820312 101.582031 295.734375 100.292969 294.671875 98.972656 C 293.582031 97.742188 292.496094 96.507812 291.433594 95.316406 C 290.863281 95.371094 290.605469 96.117188 289.867188 96.011719 C 290.261719 95.542969 290.554688 95.199219 290.949219 94.742188 C 290.15625 94.074219 289.484375 93.289062 288.789062 92.507812 C 288.082031 91.703125 287.175781 91.09375 286.402344 90.359375 C 286.007812 89.984375 285.628906 89.601562 285.246094 89.210938 L 284.0625 88.09375 C 283.269531 87.359375 282.324219 86.738281 281.722656 85.847656 C 281.101562 84.921875 280.210938 84.320312 279.457031 83.566406 C 278.722656 82.792969 277.585938 82.5625 276.925781 81.636719 C 276.296875 80.765625 275.398438 80.109375 274.519531 79.488281 C 273.660156 78.855469 272.761719 78.253906 271.824219 77.738281 C 270.878906 77.242188 270.621094 75.828125 269.34375 75.894531 C 269.21875 75.503906 269.125 75.179688 269.027344 74.855469 C 268.742188 75 268.578125 75.085938 268.386719 75.179688 C 267.175781 74.339844 265.960938 73.5 264.757812 72.667969 C 263.546875 71.863281 262.292969 71.121094 261.109375 70.367188 C 260.984375 69.964844 260.898438 69.707031 260.804688 69.410156 C 260.527344 69.554688 260.335938 69.648438 260.097656 69.78125 C 258.847656 68.972656 257.5 68.253906 256.179688 67.507812 C 254.910156 66.800781 253.679688 66.039062 252.425781 65.378906 C 252.339844 65.113281 252.273438 64.910156 252.207031 64.699219 C 251.855469 64.519531 251.5 64.347656 251.167969 64.183594 C 250.984375 64.320312 250.832031 64.425781 250.613281 64.597656 C 249.914062 64.195312 249.152344 63.859375 248.492188 63.34375 C 248.074219 63.019531 247.699219 62.722656 247.144531 62.695312 C 246.839844 62.675781 246.523438 62.542969 246.238281 62.417969 L 242.476562 60.773438 L 240.59375 59.964844 L 238.675781 59.238281 L 234.835938 57.777344 C 233.546875 57.308594 232.238281 56.917969 230.9375 56.484375 C 230.527344 56.351562 230.183594 56.09375 229.820312 55.847656 C 229.226562 55.464844 228.472656 55.378906 227.777344 55.234375 C 227.394531 55.167969 226.972656 55.234375 226.609375 55.148438 C 224.050781 54.5 221.539062 53.726562 218.949219 53.210938 C 218.339844 53.078125 217.726562 53.007812 217.175781 52.597656 C 216.867188 52.371094 216.410156 52.292969 215.921875 52.417969 C 215.457031 52.542969 214.9375 52.234375 214.453125 52.113281 C 214.15625 52.035156 213.890625 51.835938 213.582031 51.785156 L 209.5625 51.128906 C 208.894531 51.023438 208.226562 50.898438 207.546875 50.8125 L 205.523438 50.582031 L 201.472656 50.132812 C 200.125 49.992188 198.769531 49.953125 197.414062 49.855469 C 197.335938 49.855469 197.261719 49.875 197.058594 49.90625 C 197.03125 50.382812 197.003906 50.773438 196.972656 51.195312 C 196.839844 51.242188 196.734375 51.269531 196.535156 51.347656 C 196.589844 50.457031 196.640625 49.628906 196.695312 48.691406 C 196.191406 48.632812 195.769531 48.578125 195.292969 48.53125 C 195.226562 48.910156 195.167969 49.234375 195.09375 49.648438 C 194.679688 49.617188 194.261719 49.597656 193.773438 49.570312 C 193.746094 49.265625 193.707031 48.929688 193.667969 48.53125 C 193.257812 48.53125 192.839844 48.519531 192.371094 48.511719 C 192.320312 48.84375 192.273438 49.179688 192.21875 49.628906 C 191.882812 49.628906 191.578125 49.628906 191.273438 49.617188 L 186.792969 49.550781 L 182.3125 49.722656 C 181.890625 49.742188 181.480469 49.847656 180.945312 49.941406 C 180.621094 49.886719 180.171875 49.800781 179.65625 49.714844 C 179.601562 49.425781 179.535156 49.101562 179.457031 48.71875 C 178.742188 48.789062 178.035156 48.84375 177.230469 48.921875 C 177.210938 49.332031 177.191406 49.808594 177.175781 50.355469 C 175.875 50.34375 174.59375 50.324219 173.25 50.316406 C 173.257812 50.871094 173.269531 51.308594 173.285156 51.890625 C 172.265625 52.035156 171.222656 52.179688 170.125 52.332031 C 170.03125 51.871094 169.945312 51.453125 169.828125 50.925781 C 169.582031 50.925781 169.3125 50.925781 168.980469 50.945312 C 168.882812 50.613281 168.777344 50.25 168.664062 49.847656 C 165.523438 50.21875 162.476562 50.890625 159.410156 51.480469 C 159.324219 51.5 159.273438 51.699219 159.1875 51.835938 C 159.285156 52.027344 159.371094 52.226562 159.496094 52.484375 C 159.066406 52.867188 158.511719 52.75 158.015625 53.027344 C 157.871094 52.742188 157.746094 52.492188 157.605469 52.199219 C 157.394531 52.246094 157.175781 52.300781 156.878906 52.371094 C 156.878906 52.578125 156.859375 52.855469 156.847656 53.179688 C 156.609375 53.238281 156.363281 53.304688 156.054688 53.371094 C 155.941406 53.046875 155.828125 52.730469 155.730469 52.484375 C 154.910156 52.617188 154.117188 52.730469 153.335938 52.894531 C 152.550781 53.046875 151.769531 53.238281 151.011719 53.523438 C 150.308594 53.773438 149.523438 53.800781 148.863281 54.289062 C 148.863281 54.289062 148.863281 54.289062 148.863281 54.28125 C 148.101562 54.566406 147.296875 54.625 146.648438 55.148438 C 146.535156 55.234375 146.371094 55.234375 146.226562 55.273438 C 145.148438 55.523438 143.972656 55.636719 143.058594 56.238281 C 141.960938 56.972656 140.707031 57.136719 139.53125 57.757812 C 139.3125 57.296875 139.132812 56.90625 138.914062 56.449219 C 138.519531 56.582031 138.136719 56.761719 137.691406 56.933594 C 137.8125 57.375 137.9375 57.824219 138.0625 58.273438 C 137.910156 58.3125 137.84375 58.328125 137.699219 58.367188 C 137.519531 57.984375 137.335938 57.59375 137.136719 57.164062 C 137.03125 57.164062 136.90625 57.136719 136.800781 57.175781 L 132.835938 58.816406 C 131.527344 59.378906 130.238281 60.019531 128.941406 60.613281 C 128.558594 60.792969 128.128906 60.859375 127.507812 61.050781 C 126.675781 61.941406 125.253906 62.246094 124.050781 63.097656 C 124.164062 63.390625 124.28125 63.699219 124.414062 64.050781 C 124.347656 64.128906 124.269531 64.214844 124.144531 64.347656 C 123.917969 64.003906 123.707031 63.699219 123.457031 63.324219 C 122.90625 63.621094 122.378906 63.917969 121.84375 64.175781 C 121.355469 64.40625 120.832031 64.585938 120.144531 64.855469 C 119.945312 65.027344 119.628906 65.398438 119.226562 65.636719 C 115.226562 67.949219 111.300781 70.402344 107.535156 73.070312 C 106.914062 73.515625 106.296875 73.949219 105.691406 74.425781 C 105.453125 74.617188 105.292969 74.902344 105.054688 75.199219 C 104.414062 75.257812 103.832031 75.53125 103.601562 76.335938 C 102.835938 76.480469 102.265625 76.917969 101.941406 77.578125 C 101.546875 77.777344 101.15625 77.902344 100.871094 78.132812 C 99.464844 79.269531 98.042969 80.375 96.714844 81.609375 C 95.378906 82.820312 94.003906 83.996094 92.714844 85.257812 C 92.417969 85.542969 92.226562 85.945312 91.96875 86.308594 C 91.863281 86.261719 91.738281 86.203125 91.652344 86.164062 C 90.792969 87.136719 89.859375 88.035156 88.921875 88.933594 C 87.984375 89.832031 87.105469 90.804688 86.265625 91.820312 C 85.914062 91.570312 85.597656 91.359375 85.273438 91.140625 C 84.488281 91.992188 83.707031 92.804688 82.933594 93.671875 C 83.164062 93.941406 83.382812 94.199219 83.640625 94.503906 C 83.363281 94.828125 83.09375 95.152344 82.78125 95.515625 C 82.503906 95.335938 82.234375 95.144531 81.890625 94.914062 C 80.382812 96.71875 78.824219 98.488281 77.382812 100.425781 C 77.363281 100.40625 77.34375 100.398438 77.316406 100.378906 C 76.621094 101.285156 75.921875 102.203125 75.175781 103.175781 C 75.464844 103.425781 75.789062 103.703125 76.140625 104.015625 C 76.113281 104.113281 76.085938 104.21875 76.027344 104.410156 C 75.625 104.160156 75.253906 103.929688 74.804688 103.652344 C 74.394531 104.007812 74.136719 104.429688 74.011719 105.039062 C 73.917969 105.546875 73.457031 105.917969 73.113281 106.40625 C 73.390625 106.671875 73.648438 106.921875 73.953125 107.21875 C 73.488281 107.894531 73.019531 108.574219 72.523438 109.289062 C 72.179688 109.109375 71.84375 108.9375 71.492188 108.746094 C 71.042969 109.375 70.660156 109.988281 70.25 110.65625 C 70.621094 110.921875 70.976562 111.179688 71.40625 111.488281 C 71.605469 111.257812 71.777344 111.046875 71.996094 110.789062 C 72.1875 110.886719 72.386719 110.988281 72.644531 111.125 C 72.609375 111.707031 72.179688 112.039062 71.929688 112.566406 C 71.5 112.355469 71.070312 112.144531 70.5625 111.898438 C 70.257812 112.394531 69.945312 112.890625 69.636719 113.378906 C 69.324219 113.253906 69.101562 113.167969 68.855469 113.082031 C 68.03125 113.789062 67.414062 114.648438 67.15625 115.785156 C 67.296875 115.929688 67.5 116.121094 67.746094 116.359375 C 67.671875 116.5 67.574219 116.664062 67.46875 116.84375 C 67.203125 116.757812 66.933594 116.671875 66.648438 116.578125 C 65.789062 117.933594 64.917969 119.28125 64.089844 120.648438 C 63.792969 121.113281 63.582031 121.621094 63.488281 122.203125 C 63.402344 122.738281 62.980469 123.1875 62.695312 123.664062 C 62.570312 123.867188 62.339844 124.027344 62.292969 124.25 C 62.0625 125.546875 61.28125 126.550781 60.660156 127.675781 C 60.078125 128.746094 59.484375 129.84375 59.292969 131.125 C 59.167969 132.03125 58.636719 132.84375 58.242188 133.6875 C 54.632812 141.25 52.550781 149.417969 50.792969 157.554688 C 50.699219 157.976562 50.726562 158.425781 50.699219 158.855469 C 50.699219 158.96875 50.726562 159.121094 50.648438 159.207031 C 49.992188 160 50.476562 161.003906 50.210938 161.863281 C 49.960938 162.695312 49.683594 163.535156 49.542969 164.394531 C 48.425781 171.742188 47.792969 179.164062 47.859375 186.574219 L 47.832031 187.65625 L 51.652344 187.65625 C 51.671875 186.449219 50.878906 185.210938 50.890625 183.882812 C 51.195312 183.9375 51.441406 183.976562 51.730469 184.023438 C 51.796875 183.976562 51.902344 183.902344 52.042969 183.804688 C 52.042969 183.125 52.0625 182.4375 52.074219 181.664062 C 51.730469 181.597656 51.367188 181.523438 50.957031 181.4375 C 50.957031 181.015625 50.957031 180.605469 50.992188 180.175781 C 51.300781 180.128906 51.578125 180.078125 51.851562 180.03125 C 51.921875 178.914062 51.988281 177.835938 52.0625 176.707031 C 51.804688 176.652344 51.566406 176.601562 51.234375 176.527344 C 51.234375 176.132812 51.222656 175.714844 51.214844 175.238281 C 51.625 175.21875 52.007812 175.199219 52.40625 175.171875 C 52.457031 174.050781 52.589844 172.984375 52.722656 171.835938 C 52.503906 171.789062 52.273438 171.75 52.042969 171.691406 C 51.882812 171.644531 51.738281 171.570312 51.59375 171.320312 C 51.976562 171.273438 52.371094 171.234375 52.789062 171.175781 C 52.828125 170.804688 52.875 170.433594 52.921875 170.011719 C 52.558594 169.898438 52.179688 169.773438 51.765625 169.640625 C 52.027344 169.066406 52.636719 169.542969 53 169.285156 C 53.085938 168.558594 53.171875 167.796875 53.265625 166.957031 C 52.953125 166.871094 52.589844 166.765625 52.199219 166.648438 C 52.265625 166.238281 52.332031 165.855469 52.40625 165.398438 C 52.742188 165.398438 53.113281 165.398438 53.535156 165.398438 C 53.601562 165.015625 53.660156 164.644531 53.734375 164.183594 C 53.417969 164.089844 53.066406 163.976562 52.664062 163.851562 C 52.730469 163.449219 52.800781 163.066406 52.867188 162.609375 C 53.191406 162.609375 53.5625 162.609375 53.984375 162.617188 C 54.058594 162.160156 54.136719 161.710938 54.222656 161.175781 C 53.953125 161.089844 53.640625 160.996094 53.238281 160.859375 C 53.199219 160.640625 53.144531 160.382812 53.085938 160.050781 C 52.808594 159.925781 52.511719 159.792969 52.113281 159.609375 C 52.578125 158.980469 52.972656 158.3125 52.472656 157.433594 C 52.980469 157.480469 53.316406 157.507812 53.640625 157.535156 C 53.695312 157.480469 53.792969 157.433594 53.8125 157.363281 L 54.355469 154.882812 C 54.527344 154.050781 54.710938 153.230469 54.929688 152.40625 C 55.015625 152.074219 54.929688 151.699219 54.996094 151.367188 C 55.175781 150.535156 55.359375 149.683594 56 148.996094 C 56.207031 149.015625 56.449219 149.035156 56.753906 149.0625 C 56.945312 148.386719 57.105469 147.679688 57.335938 146.972656 C 57.097656 146.847656 56.898438 146.734375 56.628906 146.589844 C 57.382812 144.335938 58.050781 142.042969 58.882812 139.769531 C 59.152344 139.808594 59.425781 139.835938 59.722656 139.875 C 59.980469 139.207031 60.21875 138.558594 60.476562 137.878906 C 60.230469 137.707031 60 137.554688 59.753906 137.382812 C 59.953125 136.847656 60.144531 136.339844 60.363281 135.769531 C 60.574219 135.816406 60.804688 135.863281 61.164062 135.941406 C 61.519531 135.394531 61.691406 134.71875 61.988281 134.097656 C 62.253906 133.484375 62.523438 132.875 62.800781 132.234375 C 62.558594 132.0625 62.332031 131.890625 62.074219 131.699219 C 62.664062 130.378906 63.199219 129.035156 63.839844 127.734375 C 64.117188 127.8125 64.347656 127.867188 64.640625 127.945312 C 64.949219 127.332031 65.253906 126.710938 65.605469 126.003906 C 65.453125 125.882812 65.246094 125.710938 64.949219 125.472656 C 65.003906 125.335938 65.074219 125.164062 65.160156 124.972656 C 65.464844 125.050781 65.742188 125.117188 65.988281 125.183594 C 66.589844 124.316406 67.136719 123.445312 67.8125 122.546875 C 67.507812 122.386719 67.335938 122.300781 67.171875 122.203125 C 67.019531 122.109375 66.878906 121.984375 66.726562 121.859375 C 67.117188 121.324219 67.5 122.023438 68.015625 121.90625 C 67.976562 121.9375 68.117188 121.890625 68.148438 121.792969 C 68.5 120.636719 69.046875 119.566406 69.65625 118.535156 C 69.820312 118.269531 69.914062 117.953125 70.117188 117.722656 C 70.335938 117.464844 70.640625 117.273438 70.945312 117.054688 C 71.308594 117.257812 71.664062 117.4375 72.082031 117.667969 C 72.300781 117.324219 72.511719 116.980469 72.769531 116.558594 C 72.359375 116.28125 71.921875 115.984375 71.355469 115.613281 C 72.074219 114.457031 72.769531 113.339844 73.476562 112.210938 C 74.175781 111.074219 75.082031 110.0625 75.691406 108.878906 C 76.332031 107.722656 77.621094 107.074219 78.121094 105.652344 C 78.777344 105.296875 79.53125 104.398438 80.421875 102.792969 C 80.164062 102.59375 79.90625 102.394531 79.648438 102.191406 C 79.789062 102.070312 79.925781 101.953125 80.085938 101.8125 C 80.363281 101.984375 80.640625 102.15625 80.976562 102.363281 C 81.425781 101.78125 81.855469 101.191406 82.359375 100.605469 C 82.09375 100.339844 81.835938 100.070312 81.578125 99.8125 C 81.683594 99.710938 81.738281 99.652344 81.835938 99.546875 C 82.101562 99.726562 82.378906 99.917969 82.75 100.175781 C 83.535156 99.394531 84.203125 98.488281 84.976562 97.609375 C 84.699219 97.292969 84.453125 97.015625 84.183594 96.71875 C 84.652344 96.25 84.902344 96.996094 85.339844 97.054688 C 86.410156 95.746094 87.660156 94.511719 88.875 93.175781 C 88.683594 92.9375 88.464844 92.679688 88.195312 92.355469 C 88.796875 91.714844 89.378906 91.054688 90.011719 90.425781 C 90.640625 89.804688 91.289062 89.171875 91.941406 88.535156 C 92.179688 88.734375 92.4375 88.945312 92.75 89.210938 C 93.78125 88.226562 94.765625 87.175781 95.882812 86.210938 C 95.703125 85.953125 95.511719 85.675781 95.273438 85.34375 C 95.828125 84.855469 96.371094 84.367188 96.972656 83.832031 C 97.203125 84.042969 97.449219 84.273438 97.757812 84.550781 C 98.050781 84.28125 98.367188 84.003906 98.722656 83.691406 C 98.539062 83.433594 98.347656 83.15625 98.109375 82.820312 C 98.472656 82.496094 98.84375 82.160156 99.285156 81.769531 C 99.800781 82.390625 100.335938 83.023438 100.925781 83.71875 C 101.796875 83.011719 102.597656 82.363281 103.457031 81.664062 C 103.210938 81.320312 102.960938 80.96875 102.664062 80.566406 C 103.5625 79.839844 104.441406 79.144531 105.367188 78.398438 C 105.636719 78.703125 105.933594 79.027344 106.265625 79.410156 C 107.660156 78.390625 109.054688 77.367188 110.527344 76.296875 C 110.296875 75.945312 110.066406 75.582031 109.800781 75.160156 C 110.171875 74.894531 110.496094 74.636719 110.910156 74.378906 C 111.167969 74.710938 111.441406 75.046875 111.71875 75.410156 C 112.0625 75.359375 112.40625 75.304688 112.75 75.257812 C 113.34375 74.339844 114.203125 73.832031 115.1875 73.441406 C 116.210938 73.03125 117.242188 72.582031 117.9375 71.617188 C 118.089844 71.398438 118.320312 71.261719 118.511719 71.089844 C 118.308594 70.632812 118.136719 70.210938 117.898438 69.640625 C 118.605469 69.800781 118.664062 70.433594 119.066406 70.765625 C 119.722656 70.375 120.410156 69.972656 121.167969 69.515625 C 120.984375 69.152344 120.785156 68.761719 120.5625 68.320312 C 120.945312 68.09375 121.308594 67.882812 121.730469 67.632812 C 121.957031 67.976562 122.199219 68.351562 122.445312 68.730469 C 122.789062 68.710938 123.132812 68.695312 123.335938 68.683594 C 123.820312 68.300781 124.203125 67.988281 124.605469 67.710938 C 124.949219 67.472656 125.3125 67.300781 125.609375 66.9375 C 125.855469 66.640625 126.523438 66.820312 126.753906 66.515625 C 127.308594 65.78125 128.28125 65.992188 128.894531 65.320312 C 129.429688 64.71875 130.296875 64.519531 131.042969 64.175781 C 131.386719 64.011719 131.691406 63.804688 132.148438 63.890625 C 132.476562 63.945312 132.855469 63.746094 133.105469 63.507812 C 134.519531 62.140625 136.484375 62.015625 138.15625 61.03125 C 138.386719 61.539062 138.558594 61.929688 138.789062 62.445312 C 139.484375 62.046875 140.289062 62.035156 140.824219 61.367188 C 140.917969 61.253906 141.097656 61.214844 141.253906 61.203125 C 143.105469 61.0625 144.691406 60.117188 146.4375 59.628906 C 147.011719 59.457031 147.574219 59.292969 148.234375 59.3125 C 148.875 59.34375 149.464844 58.828125 150.117188 58.539062 C 150.097656 58.453125 150.066406 58.386719 150.050781 58.3125 C 151.328125 57.9375 152.597656 57.507812 153.964844 57.183594 C 153.917969 56.886719 153.871094 56.5625 153.800781 56.074219 C 154.863281 55.789062 155.953125 55.539062 157.105469 55.253906 C 157.25 55.625 157.375 55.980469 157.519531 56.34375 C 157.863281 56.277344 158.15625 56.191406 158.464844 56.179688 C 158.757812 56.160156 159.066406 56.21875 159.457031 56.246094 C 160.105469 55.53125 161.082031 55.636719 161.96875 55.445312 C 163.296875 55.167969 164.699219 55.160156 165.953125 54.625 C 167.011719 54.203125 168.121094 53.878906 169.199219 53.964844 C 170.050781 54.03125 170.871094 53.945312 171.683594 53.832031 C 172.492188 53.707031 173.316406 53.574219 174.136719 53.574219 C 174.507812 53.574219 174.882812 53.574219 175.234375 53.265625 C 175.484375 53.046875 175.914062 53.066406 176.246094 53.113281 C 177.8125 53.34375 178.492188 53.199219 179.964844 52.808594 C 180.738281 52.636719 181.566406 52.542969 182.378906 52.835938 C 182.742188 52.972656 183.144531 52.941406 183.527344 52.933594 C 185.035156 52.902344 186.542969 52.78125 188.101562 52.828125 C 188.148438 53.199219 188.1875 53.535156 188.234375 53.898438 C 190.222656 54.328125 192.253906 53.628906 194.300781 54.125 C 194.375 53.734375 194.453125 53.382812 194.539062 52.972656 C 194.96875 53 195.378906 53.027344 195.828125 53.046875 C 195.847656 53.421875 195.855469 53.753906 195.875 54.183594 C 196.992188 54.144531 198.089844 54.109375 199.238281 54.070312 C 199.285156 53.867188 199.332031 53.628906 199.410156 53.296875 C 199.609375 53.285156 199.828125 53.265625 200.050781 53.265625 C 200.238281 53.265625 200.441406 53.277344 200.6875 53.316406 C 200.707031 53.707031 200.71875 54.078125 200.738281 54.480469 C 201.148438 54.527344 201.519531 54.566406 201.96875 54.625 C 202.035156 54.308594 202.113281 53.972656 202.207031 53.535156 C 202.992188 53.535156 203.785156 53.679688 204.652344 53.78125 C 204.652344 54.125 204.652344 54.460938 204.644531 54.902344 C 204.84375 54.9375 205.054688 55.054688 205.273438 55.023438 C 205.894531 54.9375 206.503906 54.910156 207.105469 54.976562 C 207.699219 55.0625 208.292969 55.246094 208.855469 55.523438 C 209.132812 55.65625 209.457031 55.636719 209.761719 55.683594 C 211.214844 55.933594 212.667969 56.125 214.109375 56.429688 C 214.84375 56.601562 215.628906 56.589844 216.265625 57.175781 C 216.488281 57.375 216.859375 57.328125 217.164062 57.394531 C 217.296875 57.25 217.414062 57.117188 217.59375 56.925781 C 218.789062 57.328125 220.136719 57.277344 221.300781 58.003906 C 221.769531 58.28125 222.339844 58.511719 222.980469 58.300781 C 223.183594 58.234375 223.488281 58.320312 223.621094 58.484375 C 224.003906 58.988281 224.507812 58.855469 225.246094 58.683594 C 225.265625 58.902344 225.292969 59.179688 225.320312 59.464844 C 225.808594 59.449219 226.277344 59.417969 226.800781 59.417969 C 226.90625 59.179688 227.039062 58.875 227.210938 58.5 C 227.59375 58.625 227.984375 58.75 228.453125 58.902344 C 228.367188 59.285156 228.273438 59.707031 228.148438 60.222656 C 229.808594 60.773438 231.5 61.28125 233.285156 61.910156 C 233.335938 61.863281 233.488281 61.710938 233.667969 61.539062 C 233.9375 61.644531 234.222656 61.75 234.519531 61.863281 C 234.527344 62.054688 234.546875 62.238281 234.558594 62.457031 C 235.835938 62.945312 237.136719 63.429688 238.445312 63.925781 C 238.570312 63.8125 238.703125 63.6875 238.863281 63.527344 C 244.011719 65.714844 249.152344 68.023438 254.078125 70.871094 C 253.859375 71.300781 253.660156 71.683594 253.449219 72.105469 C 254.097656 72.46875 254.699219 72.800781 255.359375 73.171875 C 255.589844 72.847656 255.847656 72.496094 256.160156 72.046875 C 256.523438 72.207031 256.886719 72.398438 257.308594 72.628906 C 257.109375 73.050781 256.917969 73.441406 256.707031 73.871094 C 256.753906 73.9375 256.792969 74.070312 256.878906 74.121094 L 261.433594 76.964844 L 265.867188 80.011719 C 266.171875 80.222656 266.609375 80.234375 266.90625 80.460938 C 267.375 80.84375 267.917969 81.121094 268.246094 81.703125 C 268.503906 82.160156 268.988281 82.542969 269.503906 82.667969 C 270.117188 82.820312 270.535156 83.203125 270.984375 83.539062 C 272.675781 84.796875 274.234375 86.210938 275.867188 87.550781 C 276.6875 88.207031 277.453125 88.933594 278.226562 89.652344 L 280.535156 91.800781 C 280.488281 92.011719 280.441406 92.183594 280.394531 92.402344 C 280.707031 92.699219 281.050781 92.992188 281.378906 93.339844 C 281.53125 93.289062 281.691406 93.222656 281.902344 93.15625 C 282.992188 94.273438 284.097656 95.410156 285.207031 96.539062 C 285.332031 96.671875 285.398438 96.863281 285.464844 97.042969 C 285.855469 98.039062 286.488281 98.839844 287.261719 99.546875 C 287.433594 99.5 287.605469 99.441406 287.871094 99.367188 C 288.101562 99.625 288.347656 99.910156 288.605469 100.195312 C 297.613281 110.339844 305.007812 121.925781 310.585938 134.335938 C 311.207031 135.632812 311.796875 136.960938 312.1875 138.335938 C 312.503906 139.539062 312.945312 140.675781 313.382812 141.824219 C 313.652344 142.53125 314.15625 143.171875 314.339844 143.90625 C 314.699219 145.453125 315.253906 146.945312 315.675781 148.472656 L 317.03125 153.039062 C 317.128906 153.371094 317.242188 153.695312 317.335938 154.097656 C 317.824219 153.992188 318.253906 153.898438 318.742188 153.78125 C 318.722656 154.289062 318.710938 154.730469 318.695312 155.207031 C 318.40625 155.300781 318.128906 155.398438 317.777344 155.523438 C 317.804688 156.296875 317.84375 157.089844 317.871094 157.84375 C 318.160156 157.957031 318.359375 158.035156 318.570312 158.121094 C 318.769531 158.960938 319.019531 159.78125 319.160156 160.632812 C 319.238281 161.195312 319.179688 161.789062 319.265625 162.351562 C 319.351562 162.875 319.554688 163.375 319.742188 164.023438 C 319.695312 164.0625 319.535156 164.203125 319.363281 164.355469 C 319.496094 165.027344 319.621094 165.703125 319.753906 166.363281 C 319.953125 166.441406 320.125 166.507812 320.296875 166.5625 C 320.15625 166.871094 320.003906 167.164062 319.832031 167.472656 C 320.105469 167.558594 320.277344 167.605469 320.488281 167.671875 C 320.699219 169.191406 320.917969 170.738281 321.136719 172.292969 C 320.976562 172.410156 320.792969 172.535156 320.632812 172.65625 C 320.699219 173.171875 320.792969 173.679688 320.824219 174.167969 C 321.035156 174.28125 321.214844 174.386719 321.367188 174.472656 C 321.328125 175.027344 321.300781 175.550781 321.261719 176.117188 C 321.730469 176.117188 322.066406 176.117188 322.445312 176.125 C 322.484375 176.574219 322.523438 176.984375 322.5625 177.414062 C 322.265625 177.5 322 177.585938 321.710938 177.671875 C 321.796875 178.753906 321.921875 179.832031 321.988281 180.902344 C 322.027344 181.972656 322.074219 183.03125 322.113281 184.082031 C 321.882812 184.359375 321.683594 184.589844 321.472656 184.835938 C 321.769531 185 321.96875 185.105469 322.207031 185.226562 C 322.238281 185.984375 322.265625 186.765625 322.304688 187.578125 C 324.089844 187.558594 324.347656 187.558594 326.191406 187.550781 C 326.058594 186.84375 326.6875 186.203125 326.277344 185.554688 C 326.152344 185.351562 326.21875 183.539062 326.285156 183.316406 C 326.726562 181.875 327.289062 181.894531 327.414062 180.367188 Z M 148.558594 56.3125 C 148.757812 56.199219 148.960938 56.074219 149.171875 55.953125 C 149.265625 56.265625 149.359375 56.601562 149.457031 56.917969 C 149.257812 56.933594 149.046875 56.953125 148.808594 56.972656 C 148.722656 56.753906 148.664062 56.570312 148.558594 56.304688 Z M 148.558594 56.3125 " fill-opacity="1" fill-rule="nonzero"/></g><g clip-path="url(#2666450132)"><path fill="#b52414" d="M 324.355469 191.378906 C 324.050781 191.324219 323.804688 191.285156 323.515625 191.238281 C 323.449219 191.285156 323.34375 191.359375 323.203125 191.457031 C 323.203125 192.132812 323.183594 192.820312 323.171875 193.597656 C 323.515625 193.664062 323.878906 193.738281 324.289062 193.824219 C 324.289062 194.246094 324.289062 194.65625 324.253906 195.085938 C 323.945312 195.132812 323.667969 195.179688 323.394531 195.230469 C 323.324219 196.347656 323.257812 197.425781 323.183594 198.554688 C 323.441406 198.609375 323.679688 198.660156 324.011719 198.734375 C 324.011719 199.125 324.023438 199.546875 324.03125 200.023438 C 323.621094 200.042969 323.238281 200.0625 322.839844 200.089844 C 322.792969 201.207031 322.65625 202.277344 322.523438 203.425781 C 322.742188 203.472656 322.972656 203.511719 323.203125 203.566406 C 323.363281 203.617188 323.507812 203.691406 323.652344 203.941406 C 323.269531 203.988281 322.878906 204.027344 322.457031 204.082031 C 322.417969 204.457031 322.371094 204.828125 322.324219 205.25 C 322.6875 205.363281 323.066406 205.488281 323.480469 205.621094 C 323.222656 206.195312 322.609375 205.71875 322.246094 205.976562 C 322.160156 206.699219 322.074219 207.464844 321.980469 208.304688 C 322.292969 208.390625 322.65625 208.496094 323.050781 208.613281 C 322.980469 209.023438 322.914062 209.40625 322.839844 209.863281 C 322.503906 209.863281 322.132812 209.863281 321.710938 209.863281 C 321.644531 210.246094 321.585938 210.617188 321.511719 211.074219 C 321.828125 211.171875 322.179688 211.285156 322.582031 211.410156 C 322.515625 211.8125 322.445312 212.195312 322.378906 212.652344 C 322.054688 212.652344 321.683594 212.652344 321.261719 212.640625 C 321.1875 213.101562 321.109375 213.550781 321.023438 214.085938 C 321.292969 214.171875 321.605469 214.265625 322.007812 214.398438 C 322.046875 214.621094 322.101562 214.878906 322.160156 215.210938 C 322.4375 215.335938 322.734375 215.46875 323.136719 215.652344 C 322.667969 216.28125 322.273438 216.949219 322.773438 217.828125 C 322.265625 217.78125 321.929688 217.753906 321.605469 217.722656 C 321.550781 217.78125 321.453125 217.828125 321.433594 217.894531 L 320.890625 220.378906 C 320.71875 221.210938 320.535156 222.03125 320.316406 222.855469 C 320.230469 223.1875 320.316406 223.558594 320.25 223.894531 C 320.070312 224.726562 319.886719 225.574219 319.246094 226.261719 C 319.039062 226.246094 318.796875 226.226562 318.492188 226.195312 C 318.300781 226.875 318.140625 227.582031 317.910156 228.289062 C 318.148438 228.414062 318.351562 228.527344 318.617188 228.671875 C 317.863281 230.925781 317.195312 233.21875 316.363281 235.492188 C 316.09375 235.453125 315.820312 235.425781 315.523438 235.386719 C 315.265625 236.054688 315.027344 236.703125 314.769531 237.382812 C 315.015625 237.554688 315.246094 237.707031 315.492188 237.878906 C 315.292969 238.414062 315.101562 238.921875 314.882812 239.492188 C 314.671875 239.445312 314.441406 239.398438 314.082031 239.320312 C 313.726562 239.867188 313.554688 240.542969 313.257812 241.164062 C 312.992188 241.777344 312.722656 242.386719 312.445312 243.027344 C 312.6875 243.199219 312.914062 243.371094 313.171875 243.5625 C 312.582031 244.878906 312.046875 246.226562 311.40625 247.527344 C 311.128906 247.449219 310.898438 247.394531 310.605469 247.316406 C 310.296875 247.925781 309.992188 248.546875 309.640625 249.253906 C 309.792969 249.378906 310.003906 249.550781 310.296875 249.789062 C 310.242188 249.925781 310.175781 250.097656 310.089844 250.285156 C 309.78125 250.210938 309.503906 250.144531 309.257812 250.078125 C 308.65625 250.945312 308.109375 251.816406 307.433594 252.714844 C 307.738281 252.875 307.910156 252.960938 308.074219 253.058594 C 308.226562 253.152344 308.367188 253.277344 308.523438 253.402344 C 308.128906 253.9375 307.746094 253.238281 307.230469 253.351562 C 307.269531 253.324219 307.128906 253.371094 307.097656 253.46875 C 306.753906 254.625 306.199219 255.695312 305.589844 256.726562 C 305.425781 256.992188 305.332031 257.308594 305.132812 257.535156 C 304.910156 257.792969 304.605469 257.984375 304.300781 258.207031 C 303.9375 258.003906 303.582031 257.824219 303.164062 257.59375 C 302.945312 257.9375 302.734375 258.28125 302.476562 258.703125 C 302.886719 258.980469 303.324219 259.273438 303.890625 259.648438 C 303.171875 260.804688 302.476562 261.921875 301.769531 263.046875 C 301.070312 264.183594 300.164062 265.199219 299.554688 266.382812 C 298.914062 267.539062 297.625 268.1875 297.128906 269.609375 C 296.46875 269.964844 295.714844 270.863281 294.824219 272.464844 C 295.082031 272.667969 295.339844 272.867188 295.597656 273.070312 C 295.457031 273.191406 295.320312 273.308594 295.160156 273.449219 C 294.882812 273.277344 294.605469 273.105469 294.269531 272.898438 C 293.824219 273.480469 293.390625 274.070312 292.886719 274.652344 C 293.152344 274.921875 293.410156 275.1875 293.667969 275.445312 C 293.566406 275.550781 293.507812 275.609375 293.410156 275.714844 C 293.144531 275.53125 292.867188 275.34375 292.496094 275.082031 C 291.710938 275.867188 291.042969 276.773438 290.269531 277.652344 C 290.546875 277.96875 290.792969 278.246094 291.0625 278.542969 C 290.59375 279.011719 290.347656 278.265625 289.90625 278.207031 C 288.835938 279.515625 287.585938 280.75 286.371094 282.085938 C 286.5625 282.324219 286.78125 282.582031 287.050781 282.90625 C 286.449219 283.546875 285.867188 284.207031 285.234375 284.835938 C 284.605469 285.457031 283.957031 286.085938 283.304688 286.726562 C 283.066406 286.527344 282.808594 286.316406 282.496094 286.050781 C 281.464844 287.035156 280.480469 288.085938 279.363281 289.050781 C 279.542969 289.308594 279.734375 289.582031 279.972656 289.917969 C 279.417969 290.40625 278.875 290.890625 278.273438 291.425781 C 278.042969 291.21875 277.796875 290.988281 277.488281 290.710938 C 277.195312 290.976562 276.878906 291.253906 276.523438 291.570312 C 276.707031 291.828125 276.898438 292.105469 277.136719 292.441406 C 276.773438 292.765625 276.402344 293.097656 275.960938 293.492188 C 275.445312 292.871094 274.910156 292.238281 274.320312 291.542969 C 273.449219 292.25 272.648438 292.898438 271.789062 293.597656 C 272.035156 293.941406 272.285156 294.292969 272.582031 294.695312 C 271.683594 295.421875 270.804688 296.117188 269.878906 296.863281 C 269.609375 296.558594 269.3125 296.230469 268.980469 295.851562 C 267.585938 296.871094 266.191406 297.894531 264.71875 298.964844 C 264.949219 299.316406 265.179688 299.679688 265.445312 300.101562 C 265.074219 300.367188 264.75 300.625 264.339844 300.882812 C 264.082031 300.550781 263.804688 300.214844 263.527344 299.851562 C 263.183594 299.898438 262.839844 299.957031 262.496094 300.003906 C 261.902344 300.921875 261.042969 301.429688 260.058594 301.820312 C 259.035156 302.230469 258.003906 302.679688 257.308594 303.644531 C 257.15625 303.863281 256.925781 303.996094 256.734375 304.167969 C 256.9375 304.628906 257.109375 305.046875 257.347656 305.621094 C 256.640625 305.460938 256.582031 304.828125 256.179688 304.496094 C 255.523438 304.886719 254.835938 305.289062 254.078125 305.746094 C 254.261719 306.109375 254.460938 306.5 254.683594 306.941406 C 254.300781 307.167969 253.9375 307.378906 253.515625 307.628906 C 253.289062 307.285156 253.046875 306.910156 252.800781 306.527344 C 252.457031 306.546875 252.113281 306.566406 251.910156 306.578125 C 251.425781 306.957031 251.042969 307.273438 250.640625 307.550781 C 250.296875 307.789062 249.933594 307.960938 249.640625 308.324219 C 249.390625 308.621094 248.722656 308.441406 248.492188 308.746094 C 247.9375 309.480469 246.964844 309.269531 246.351562 309.9375 C 245.816406 310.539062 244.949219 310.742188 244.203125 311.085938 C 243.859375 311.246094 243.554688 311.457031 243.097656 311.371094 C 242.769531 311.316406 242.390625 311.515625 242.140625 311.753906 C 240.726562 313.121094 238.761719 313.246094 237.089844 314.226562 C 236.859375 313.722656 236.6875 313.332031 236.457031 312.8125 C 235.761719 313.214844 234.957031 313.226562 234.421875 313.894531 C 234.328125 314.007812 234.148438 314.046875 233.992188 314.054688 C 232.140625 314.199219 230.554688 315.144531 228.808594 315.632812 C 228.234375 315.804688 227.671875 315.964844 227.011719 315.949219 C 226.371094 315.917969 225.78125 316.433594 225.128906 316.722656 C 225.148438 316.808594 225.179688 316.875 225.199219 316.949219 C 223.917969 317.324219 222.648438 317.753906 221.28125 318.078125 C 221.328125 318.375 221.375 318.699219 221.445312 319.183594 C 220.382812 319.472656 219.292969 319.71875 218.140625 320.007812 C 217.996094 319.632812 217.871094 319.28125 217.726562 318.917969 C 217.382812 318.984375 217.089844 319.070312 216.78125 319.082031 C 216.488281 319.097656 216.179688 319.042969 215.789062 319.011719 C 215.140625 319.730469 214.164062 319.625 213.277344 319.816406 C 211.949219 320.09375 210.546875 320.101562 209.292969 320.636719 C 208.234375 321.058594 207.125 321.382812 206.046875 321.296875 C 205.195312 321.230469 204.375 321.316406 203.5625 321.429688 C 202.753906 321.554688 201.929688 321.6875 201.109375 321.6875 C 200.738281 321.6875 200.363281 321.6875 200.011719 321.992188 C 199.761719 322.214844 199.332031 322.195312 199 322.148438 C 197.433594 321.917969 196.753906 322.0625 195.28125 322.453125 C 194.507812 322.625 193.679688 322.71875 192.867188 322.421875 C 192.503906 322.289062 192.101562 322.320312 191.71875 322.328125 C 190.210938 322.355469 188.703125 322.480469 187.144531 322.433594 C 187.097656 322.0625 187.058594 321.726562 187.011719 321.363281 C 185.023438 320.933594 182.992188 321.628906 180.945312 321.132812 C 180.871094 321.527344 180.792969 321.878906 180.707031 322.289062 C 180.277344 322.261719 179.867188 322.234375 179.417969 322.214844 C 179.398438 321.839844 179.390625 321.507812 179.371094 321.078125 C 178.253906 321.113281 177.15625 321.152344 176.007812 321.191406 C 175.960938 321.390625 175.914062 321.628906 175.835938 321.964844 C 175.636719 321.976562 175.417969 321.992188 175.195312 321.992188 C 175.007812 321.992188 174.804688 321.984375 174.558594 321.945312 C 174.539062 321.554688 174.527344 321.183594 174.507812 320.78125 C 174.097656 320.734375 173.726562 320.695312 173.277344 320.636719 C 173.210938 320.953125 173.132812 321.285156 173.039062 321.726562 C 172.253906 321.726562 171.460938 321.582031 170.59375 321.476562 C 170.59375 321.132812 170.59375 320.800781 170.601562 320.359375 C 170.402344 320.320312 170.191406 320.207031 169.972656 320.234375 C 169.351562 320.320312 168.742188 320.351562 168.140625 320.285156 C 167.546875 320.199219 166.953125 320.015625 166.390625 319.738281 C 166.113281 319.605469 165.789062 319.625 165.484375 319.578125 C 164.042969 319.328125 162.578125 319.136719 161.136719 318.832031 C 160.402344 318.660156 159.621094 318.667969 158.980469 318.085938 C 158.757812 317.886719 158.386719 317.933594 158.082031 317.867188 C 157.949219 318.011719 157.832031 318.144531 157.652344 318.335938 C 156.457031 317.933594 155.109375 317.980469 153.945312 317.257812 C 153.476562 316.980469 152.90625 316.75 152.265625 316.960938 C 152.0625 317.027344 151.757812 316.941406 151.625 316.777344 C 151.242188 316.273438 150.738281 316.40625 150 316.578125 C 149.980469 316.359375 149.953125 316.082031 149.925781 315.792969 C 149.4375 315.8125 148.96875 315.84375 148.445312 315.84375 C 148.339844 316.082031 148.207031 316.386719 148.035156 316.757812 C 147.652344 316.636719 147.261719 316.511719 146.792969 316.359375 C 146.878906 315.976562 146.972656 315.554688 147.097656 315.039062 C 145.4375 314.484375 143.746094 313.980469 141.960938 313.347656 C 141.910156 313.398438 141.757812 313.550781 141.578125 313.722656 C 141.308594 313.617188 141.023438 313.511719 140.726562 313.398438 C 140.71875 313.207031 140.699219 313.023438 140.6875 312.804688 C 139.410156 312.316406 138.109375 311.832031 136.800781 311.332031 C 136.675781 311.449219 136.542969 311.574219 136.382812 311.734375 C 131.234375 309.546875 126.09375 307.234375 121.167969 304.390625 C 121.386719 303.960938 121.585938 303.578125 121.796875 303.15625 C 121.148438 302.792969 120.546875 302.460938 119.886719 302.085938 C 119.65625 302.410156 119.398438 302.765625 119.085938 303.214844 C 118.722656 303.050781 118.359375 302.859375 117.9375 302.632812 C 118.136719 302.210938 118.328125 301.820312 118.539062 301.390625 C 118.492188 301.324219 118.453125 301.191406 118.367188 301.140625 L 113.8125 298.296875 L 109.378906 295.25 C 109.074219 295.039062 108.636719 295.027344 108.339844 294.800781 C 107.871094 294.417969 107.328125 294.140625 107 293.558594 C 106.742188 293.097656 106.257812 292.71875 105.742188 292.59375 C 105.128906 292.441406 104.710938 292.058594 104.261719 291.722656 C 102.570312 290.460938 101.011719 289.050781 99.378906 287.710938 C 98.558594 287.050781 97.792969 286.328125 97.019531 285.609375 L 94.710938 283.460938 C 94.757812 283.25 94.804688 283.078125 94.851562 282.859375 C 94.539062 282.5625 94.195312 282.265625 93.867188 281.921875 C 93.714844 281.972656 93.554688 282.039062 93.34375 282.105469 C 92.253906 280.988281 91.148438 279.851562 90.039062 278.722656 C 89.914062 278.589844 89.847656 278.398438 89.78125 278.21875 C 89.390625 277.222656 88.757812 276.421875 87.984375 275.714844 C 87.8125 275.761719 87.640625 275.820312 87.375 275.894531 C 87.144531 275.636719 86.898438 275.351562 86.640625 275.066406 C 77.632812 264.921875 70.238281 253.332031 64.660156 240.925781 C 64.039062 239.625 63.449219 238.300781 63.058594 236.921875 C 62.742188 235.71875 62.300781 234.582031 61.863281 233.4375 C 61.597656 232.730469 61.089844 232.089844 60.90625 231.355469 C 60.546875 229.808594 59.992188 228.316406 59.570312 226.789062 L 58.214844 222.222656 C 58.117188 221.890625 58.003906 221.5625 57.910156 221.164062 C 57.421875 221.269531 56.992188 221.363281 56.503906 221.476562 C 56.523438 220.972656 56.535156 220.53125 56.550781 220.054688 C 56.839844 219.960938 57.117188 219.863281 57.46875 219.738281 C 57.441406 218.964844 57.402344 218.171875 57.375 217.417969 C 57.085938 217.304688 56.886719 217.226562 56.675781 217.140625 C 56.476562 216.300781 56.226562 215.480469 56.085938 214.628906 C 56 214.066406 56.066406 213.472656 55.980469 212.910156 C 55.894531 212.382812 55.691406 211.886719 55.503906 211.238281 C 55.550781 211.199219 55.710938 211.058594 55.882812 210.902344 C 55.75 210.234375 55.625 209.558594 55.492188 208.898438 C 55.292969 208.820312 55.121094 208.753906 54.949219 208.699219 C 55.089844 208.390625 55.246094 208.09375 55.417969 207.789062 C 55.140625 207.703125 54.96875 207.65625 54.757812 207.589844 C 54.546875 206.070312 54.328125 204.523438 54.109375 202.964844 C 54.269531 202.851562 54.453125 202.726562 54.613281 202.601562 C 54.546875 202.085938 54.453125 201.582031 54.421875 201.09375 C 54.210938 200.980469 54.03125 200.875 53.878906 200.789062 C 53.917969 200.234375 53.945312 199.707031 53.984375 199.144531 C 53.515625 199.144531 53.179688 199.144531 52.800781 199.136719 C 52.761719 198.6875 52.722656 198.277344 52.683594 197.847656 C 52.980469 197.761719 53.246094 197.675781 53.535156 197.589844 C 53.449219 196.507812 53.324219 195.429688 53.257812 194.359375 C 53.21875 193.289062 53.171875 192.230469 53.132812 191.179688 C 53.363281 190.902344 53.5625 190.671875 53.773438 190.425781 C 53.476562 190.261719 53.277344 190.15625 53.039062 190.03125 C 53.007812 189.277344 52.980469 188.496094 52.941406 187.683594 C 51.15625 187.703125 50.898438 187.703125 49.054688 187.710938 C 49.1875 188.417969 48.558594 189.058594 48.96875 189.707031 C 49.09375 189.910156 49.027344 191.722656 48.960938 191.941406 C 48.519531 193.386719 47.957031 193.367188 47.832031 194.894531 C 48.425781 194.894531 48.960938 194.894531 49.53125 194.902344 C 49.582031 195 49.628906 195.105469 49.714844 195.285156 C 49.140625 195.363281 48.617188 195.429688 47.945312 195.515625 C 47.964844 196.335938 48.070312 197.167969 48.15625 198.074219 C 48.625 198.066406 49.054688 198.054688 49.5625 198.046875 C 49.597656 198.484375 49.636719 198.917969 49.683594 199.414062 C 49.265625 199.488281 48.835938 199.566406 48.347656 199.640625 C 48.53125 202.441406 49.035156 205.183594 49.398438 208.027344 C 49.953125 207.941406 50.476562 207.867188 51.050781 207.769531 C 51.375 210.023438 51.863281 212.164062 52.273438 214.410156 C 51.71875 214.523438 51.203125 214.628906 50.632812 214.742188 C 50.773438 215.546875 50.917969 216.253906 51.128906 217.046875 C 51.605469 216.96875 52.128906 216.894531 52.789062 216.789062 C 53.09375 217.457031 53.171875 218.203125 53.371094 218.925781 C 53.574219 219.652344 53.734375 220.390625 53.917969 221.152344 C 53.335938 221.324219 52.855469 221.46875 52.265625 221.648438 C 52.339844 222.0625 52.40625 222.480469 52.523438 222.96875 C 53.085938 222.851562 53.609375 222.75 54.175781 222.644531 C 54.242188 222.730469 54.308594 222.824219 54.421875 222.976562 C 53.878906 223.167969 53.371094 223.339844 52.742188 223.558594 C 53.199219 225.125 53.667969 226.710938 54.136719 228.289062 C 54.59375 229.929688 55.234375 231.507812 55.777344 233.121094 C 56.324219 234.6875 56.695312 236.339844 57.574219 237.765625 C 58.453125 239.234375 58.949219 240.839844 59.667969 242.347656 C 60.410156 243.792969 60.871094 245.359375 61.699219 246.773438 C 62.523438 248.242188 63.265625 249.769531 64.058594 251.269531 C 64.851562 252.722656 65.570312 254.210938 66.449219 255.617188 L 69.027344 259.992188 L 71.730469 264.148438 C 72.628906 265.578125 73.667969 266.917969 74.632812 268.300781 C 75.578125 269.628906 76.371094 271.082031 77.402344 272.351562 C 78.433594 273.699219 79.523438 274.988281 80.582031 276.304688 C 81.671875 277.539062 82.761719 278.769531 83.820312 279.964844 C 84.394531 279.90625 84.652344 279.164062 85.386719 279.269531 C 84.996094 279.734375 84.699219 280.078125 84.308594 280.539062 C 85.101562 281.207031 85.769531 281.988281 86.46875 282.773438 C 87.171875 283.574219 88.082031 284.1875 88.855469 284.921875 C 89.246094 285.296875 89.628906 285.675781 90.011719 286.070312 L 91.195312 287.1875 C 91.988281 287.921875 92.933594 288.542969 93.535156 289.429688 C 94.15625 290.359375 95.042969 290.960938 95.796875 291.714844 C 96.535156 292.488281 97.671875 292.71875 98.328125 293.644531 C 98.960938 294.511719 99.859375 295.171875 100.738281 295.792969 C 101.597656 296.421875 102.492188 297.023438 103.429688 297.539062 C 104.375 298.039062 104.632812 299.449219 105.914062 299.382812 C 106.039062 299.777344 106.132812 300.101562 106.226562 300.425781 C 106.515625 300.28125 106.675781 300.195312 106.867188 300.101562 C 108.082031 300.941406 109.292969 301.78125 110.496094 302.613281 C 111.710938 303.414062 112.960938 304.160156 114.144531 304.914062 C 114.269531 305.316406 114.355469 305.574219 114.453125 305.871094 C 114.730469 305.726562 114.917969 305.632812 115.160156 305.496094 C 116.410156 306.308594 117.757812 307.027344 119.074219 307.769531 C 120.34375 308.476562 121.578125 309.242188 122.828125 309.902344 C 122.914062 310.167969 122.980469 310.367188 123.046875 310.578125 C 123.402344 310.761719 123.753906 310.933594 124.089844 311.09375 C 124.269531 310.960938 124.421875 310.855469 124.644531 310.683594 C 125.339844 311.085938 126.105469 311.417969 126.761719 311.933594 C 127.183594 312.261719 127.554688 312.554688 128.109375 312.585938 C 128.414062 312.605469 128.730469 312.738281 129.015625 312.863281 L 132.78125 314.503906 L 134.660156 315.316406 L 136.582031 316.042969 L 140.421875 317.503906 C 141.710938 317.972656 143.019531 318.363281 144.316406 318.792969 C 144.730469 318.925781 145.074219 319.183594 145.4375 319.433594 C 146.027344 319.816406 146.78125 319.902344 147.480469 320.046875 C 147.863281 320.113281 148.28125 320.046875 148.644531 320.132812 C 151.203125 320.78125 153.714844 321.554688 156.304688 322.070312 C 156.917969 322.203125 157.527344 322.269531 158.082031 322.679688 C 158.386719 322.910156 158.84375 322.988281 159.332031 322.863281 C 159.800781 322.738281 160.316406 323.042969 160.804688 323.167969 C 161.097656 323.246094 161.367188 323.445312 161.671875 323.492188 L 165.695312 324.152344 C 166.363281 324.257812 167.03125 324.382812 167.710938 324.46875 L 169.734375 324.695312 L 173.785156 325.144531 C 175.128906 325.289062 176.488281 325.328125 177.84375 325.421875 C 177.917969 325.421875 177.996094 325.402344 178.195312 325.375 C 178.226562 324.898438 178.253906 324.507812 178.28125 324.085938 C 178.414062 324.039062 178.519531 324.007812 178.722656 323.933594 C 178.664062 324.820312 178.617188 325.652344 178.558594 326.589844 C 179.066406 326.644531 179.484375 326.703125 179.964844 326.75 C 180.03125 326.367188 180.085938 326.042969 180.164062 325.632812 C 180.574219 325.660156 180.996094 325.679688 181.480469 325.710938 C 181.511719 326.015625 181.546875 326.347656 181.585938 326.75 C 181.996094 326.75 182.417969 326.761719 182.886719 326.769531 C 182.933594 326.433594 182.980469 326.101562 183.039062 325.652344 C 183.371094 325.652344 183.679688 325.652344 183.984375 325.660156 L 188.464844 325.730469 L 192.941406 325.558594 C 193.363281 325.539062 193.773438 325.433594 194.308594 325.335938 C 194.632812 325.394531 195.082031 325.480469 195.597656 325.566406 C 195.65625 325.851562 195.722656 326.175781 195.800781 326.558594 C 196.515625 326.492188 197.222656 326.433594 198.023438 326.359375 C 198.042969 325.949219 198.0625 325.46875 198.082031 324.925781 C 199.378906 324.9375 200.660156 324.953125 202.007812 324.964844 C 201.996094 324.410156 201.988281 323.972656 201.96875 323.386719 C 202.992188 323.246094 204.03125 323.101562 205.128906 322.949219 C 205.226562 323.40625 205.3125 323.828125 205.425781 324.351562 C 205.675781 324.351562 205.941406 324.351562 206.277344 324.335938 C 206.371094 324.667969 206.476562 325.03125 206.589844 325.433594 C 209.734375 325.058594 212.78125 324.390625 215.847656 323.800781 C 215.933594 323.78125 215.980469 323.578125 216.066406 323.445312 C 215.972656 323.253906 215.886719 323.054688 215.761719 322.796875 C 216.191406 322.414062 216.746094 322.527344 217.242188 322.25 C 217.382812 322.539062 217.507812 322.785156 217.652344 323.082031 C 217.863281 323.035156 218.082031 322.976562 218.378906 322.910156 C 218.378906 322.699219 218.398438 322.421875 218.40625 322.097656 C 218.644531 322.042969 218.894531 321.976562 219.199219 321.90625 C 219.3125 322.234375 219.429688 322.546875 219.523438 322.796875 C 220.34375 322.664062 221.136719 322.546875 221.921875 322.386719 C 222.703125 322.234375 223.488281 322.042969 224.242188 321.753906 C 224.949219 321.507812 225.730469 321.476562 226.390625 320.992188 C 226.390625 320.992188 226.390625 320.992188 226.390625 321 C 227.15625 320.714844 227.957031 320.65625 228.605469 320.132812 C 228.722656 320.046875 228.882812 320.046875 229.027344 320.007812 C 230.105469 319.757812 231.28125 319.644531 232.199219 319.042969 C 233.296875 318.308594 234.546875 318.144531 235.722656 317.523438 C 235.941406 317.980469 236.125 318.375 236.34375 318.832031 C 236.734375 318.699219 237.117188 318.515625 237.566406 318.34375 C 237.441406 317.90625 237.316406 317.457031 237.195312 317.007812 C 237.347656 316.96875 237.414062 316.949219 237.554688 316.910156 C 237.738281 317.292969 237.917969 317.6875 238.121094 318.117188 C 238.226562 318.117188 238.347656 318.144531 238.453125 318.105469 L 242.417969 316.464844 C 243.726562 315.898438 245.015625 315.257812 246.316406 314.667969 C 246.695312 314.484375 247.125 314.417969 247.746094 314.226562 C 248.578125 313.339844 250 313.035156 251.207031 312.183594 C 251.089844 311.886719 250.976562 311.582031 250.84375 311.230469 C 250.910156 311.152344 250.984375 311.066406 251.109375 310.933594 C 251.339844 311.277344 251.550781 311.582031 251.796875 311.953125 C 252.351562 311.660156 252.875 311.363281 253.410156 311.105469 C 253.898438 310.875 254.425781 310.695312 255.113281 310.425781 C 255.3125 310.253906 255.628906 309.882812 256.027344 309.644531 C 260.03125 307.332031 263.957031 304.875 267.71875 302.210938 C 268.339844 301.761719 268.960938 301.332031 269.5625 300.855469 C 269.800781 300.664062 269.964844 300.378906 270.203125 300.082031 C 270.84375 300.023438 271.425781 299.746094 271.652344 298.945312 C 272.417969 298.800781 272.992188 298.363281 273.316406 297.703125 C 273.707031 297.503906 274.097656 297.378906 274.386719 297.148438 C 275.789062 296.011719 277.214844 294.902344 278.539062 293.671875 C 279.878906 292.457031 281.253906 291.285156 282.542969 290.023438 C 282.839844 289.738281 283.03125 289.335938 283.289062 288.972656 C 283.390625 289.019531 283.515625 289.078125 283.601562 289.117188 C 284.460938 288.140625 285.398438 287.242188 286.335938 286.34375 C 287.269531 285.449219 288.148438 284.472656 288.988281 283.460938 C 289.34375 283.710938 289.65625 283.917969 289.984375 284.140625 C 290.765625 283.289062 291.550781 282.476562 292.324219 281.609375 C 292.09375 281.339844 291.875 281.082031 291.617188 280.777344 C 291.894531 280.453125 292.160156 280.128906 292.476562 279.765625 C 292.753906 279.945312 293.019531 280.136719 293.363281 280.367188 C 294.871094 278.5625 296.429688 276.792969 297.871094 274.855469 C 297.890625 274.875 297.910156 274.882812 297.9375 274.902344 C 298.636719 273.996094 299.332031 273.078125 300.078125 272.105469 C 299.792969 271.855469 299.46875 271.578125 299.113281 271.261719 C 299.140625 271.167969 299.171875 271.0625 299.226562 270.871094 C 299.628906 271.121094 300.003906 271.347656 300.449219 271.625 C 300.863281 271.273438 301.121094 270.851562 301.242188 270.242188 C 301.339844 269.734375 301.796875 269.363281 302.140625 268.875 C 301.863281 268.609375 301.605469 268.359375 301.300781 268.0625 C 301.769531 267.386719 302.238281 266.707031 302.734375 265.992188 C 303.078125 266.171875 303.410156 266.34375 303.765625 266.535156 C 304.214844 265.90625 304.597656 265.292969 305.007812 264.625 C 304.632812 264.355469 304.28125 264.097656 303.851562 263.792969 C 303.652344 264.023438 303.480469 264.234375 303.257812 264.492188 C 303.066406 264.394531 302.867188 264.289062 302.609375 264.15625 C 302.648438 263.574219 303.078125 263.238281 303.324219 262.714844 C 303.753906 262.925781 304.183594 263.132812 304.691406 263.382812 C 304.996094 262.886719 305.3125 262.390625 305.617188 261.902344 C 305.933594 262.027344 306.152344 262.113281 306.402344 262.199219 C 307.222656 261.492188 307.84375 260.632812 308.101562 259.496094 C 307.957031 259.351562 307.757812 259.160156 307.507812 258.921875 C 307.585938 258.777344 307.679688 258.617188 307.785156 258.433594 C 308.054688 258.519531 308.320312 258.605469 308.609375 258.703125 C 309.46875 257.347656 310.335938 256 311.167969 254.632812 C 311.464844 254.164062 311.671875 253.660156 311.769531 253.074219 C 311.855469 252.542969 312.273438 252.09375 312.5625 251.613281 C 312.6875 251.414062 312.914062 251.25 312.960938 251.03125 C 313.191406 249.734375 313.976562 248.730469 314.597656 247.601562 C 315.179688 246.53125 315.769531 245.433594 315.960938 244.15625 C 316.085938 243.246094 316.621094 242.433594 317.011719 241.59375 C 320.621094 234.03125 322.703125 225.863281 324.460938 217.722656 C 324.558594 217.304688 324.53125 216.855469 324.558594 216.425781 C 324.558594 216.308594 324.53125 216.15625 324.605469 216.070312 C 325.265625 215.277344 324.777344 214.277344 325.046875 213.417969 C 325.292969 212.585938 325.570312 211.746094 325.714844 210.886719 C 326.832031 203.539062 327.460938 196.117188 327.394531 188.703125 L 327.421875 187.625 L 323.601562 187.625 C 323.582031 188.828125 324.375 190.070312 324.367188 191.398438 Z M 226.113281 319.261719 C 226.019531 318.945312 225.921875 318.613281 225.828125 318.296875 C 226.027344 318.277344 226.238281 318.257812 226.476562 318.238281 C 226.554688 318.460938 226.621094 318.640625 226.726562 318.910156 C 226.523438 319.023438 226.324219 319.148438 226.113281 319.273438 Z M 226.113281 319.261719 " fill-opacity="1" fill-rule="nonzero"/></g><g fill="#b52414" fill-opacity="1"><g transform="translate(143.866729, 138.299144)"><g><path d="M 37.40625 7.390625 C 35.875 7.503906 34.785156 6.914062 34.140625 5.625 C 34.140625 5.332031 34.125 4.582031 34.09375 3.375 C 34.070312 2.175781 34.03125 0.550781 33.96875 -1.5 C 33.90625 -3.488281 33.875 -5.054688 33.875 -6.203125 C 33.875 -7.347656 33.875 -8.035156 33.875 -8.265625 C 33.875 -8.390625 33.875 -8.566406 33.875 -8.796875 C 33.875 -9.035156 33.90625 -9.300781 33.96875 -9.59375 C 34.144531 -11.644531 33.851562 -12.875 33.09375 -13.28125 C 31.851562 -13.632812 30.707031 -12.875 29.65625 -11 C 29.363281 -10.46875 29.128906 -10.113281 28.953125 -9.9375 C 28.710938 -9.644531 28.460938 -9.265625 28.203125 -8.796875 C 27.941406 -8.328125 27.664062 -7.800781 27.375 -7.21875 C 26.257812 -5.21875 25.378906 -3.925781 24.734375 -3.34375 C 23.316406 -1.695312 21.992188 -0.960938 20.765625 -1.140625 C 19.648438 -1.316406 19.503906 -2.109375 20.328125 -3.515625 C 20.503906 -3.753906 20.679688 -3.988281 20.859375 -4.21875 C 21.035156 -4.457031 21.238281 -4.691406 21.46875 -4.921875 C 25.75 -10.910156 29.066406 -16.722656 31.421875 -22.359375 C 32.066406 -23.765625 32.390625 -24.613281 32.390625 -24.90625 C 32.210938 -25.375 31.890625 -25.898438 31.421875 -26.484375 C 31.066406 -27.242188 30.476562 -27.300781 29.65625 -26.65625 C 28.894531 -26.070312 28.367188 -25.722656 28.078125 -25.609375 C 27.304688 -25.023438 26.335938 -24.96875 25.171875 -25.4375 C 24.703125 -25.664062 24.320312 -26.015625 24.03125 -26.484375 C 24.03125 -26.546875 24.03125 -26.8125 24.03125 -27.28125 C 24.03125 -27.75 24.054688 -28.421875 24.109375 -29.296875 C 24.347656 -33.285156 24.507812 -36.628906 24.59375 -39.328125 C 24.6875 -42.035156 24.734375 -44.09375 24.734375 -45.5 C 24.785156 -47.019531 25.632812 -47.835938 27.28125 -47.953125 L 33.09375 -47.953125 C 34.082031 -48.015625 34.898438 -48.570312 35.546875 -49.625 C 35.546875 -49.75 35.546875 -49.910156 35.546875 -50.109375 C 35.546875 -50.316406 35.578125 -50.539062 35.640625 -50.78125 C 35.753906 -52.539062 35.429688 -53.800781 34.671875 -54.5625 C 34.609375 -54.5625 34.503906 -54.570312 34.359375 -54.59375 C 34.210938 -54.625 34.050781 -54.671875 33.875 -54.734375 C 33.113281 -54.910156 32.554688 -54.851562 32.203125 -54.5625 C 31.035156 -54.207031 29.101562 -54.351562 26.40625 -55 C 25.757812 -55.113281 25.171875 -55.210938 24.640625 -55.296875 C 24.109375 -55.390625 23.609375 -55.4375 23.140625 -55.4375 L 20.6875 -56.234375 C 19.863281 -58.347656 18.101562 -60.078125 15.40625 -61.421875 C 15.050781 -61.535156 14.640625 -61.710938 14.171875 -61.953125 C 13.753906 -62.179688 13.398438 -62.367188 13.109375 -62.515625 C 12.816406 -62.671875 12.582031 -62.773438 12.40625 -62.828125 C 12.40625 -62.828125 12.285156 -62.988281 12.046875 -63.3125 C 11.816406 -63.632812 11.46875 -64.09375 11 -64.6875 C 10.53125 -65.382812 10.441406 -65.878906 10.734375 -66.171875 C 11.203125 -66.992188 12.140625 -67.289062 13.546875 -67.0625 C 13.722656 -67 13.898438 -66.96875 14.078125 -66.96875 C 15.722656 -66.207031 17.191406 -65.429688 18.484375 -64.640625 C 19.773438 -63.847656 20.914062 -63.066406 21.90625 -62.296875 C 22.03125 -62.242188 22.148438 -62.160156 22.265625 -62.046875 C 23.785156 -59.984375 25.894531 -58.867188 28.59375 -58.703125 L 30.625 -58.703125 C 33.726562 -58.703125 35.253906 -59.609375 35.203125 -61.421875 C 35.085938 -62.128906 34.910156 -62.863281 34.671875 -63.625 C 34.671875 -63.851562 34.582031 -64.234375 34.40625 -64.765625 C 34.050781 -65.648438 33.875 -66.382812 33.875 -66.96875 C 33.875 -67.5 34.460938 -68 35.640625 -68.46875 C 35.992188 -68.582031 36.226562 -68.640625 36.34375 -68.640625 C 38.570312 -67.878906 39.921875 -66.941406 40.390625 -65.828125 C 40.453125 -65.585938 40.492188 -65.363281 40.515625 -65.15625 C 40.546875 -64.957031 40.5625 -64.738281 40.5625 -64.5 C 40.5625 -64.445312 40.328125 -63.863281 39.859375 -62.75 C 39.742188 -62.394531 39.6875 -62.160156 39.6875 -62.046875 C 39.6875 -61.984375 39.921875 -61.394531 40.390625 -60.28125 C 40.503906 -59.925781 40.5625 -59.691406 40.5625 -59.578125 C 42.445312 -59.578125 43.972656 -59.898438 45.140625 -60.546875 C 45.203125 -60.597656 45.242188 -60.625 45.265625 -60.625 C 45.296875 -60.625 45.34375 -60.65625 45.40625 -60.71875 C 45.9375 -61.007812 46.550781 -60.976562 47.25 -60.625 C 47.957031 -60.28125 48.617188 -59.753906 49.234375 -59.046875 C 49.847656 -58.335938 50.285156 -57.628906 50.546875 -56.921875 C 50.816406 -56.222656 50.773438 -55.640625 50.421875 -55.171875 C 50.191406 -54.765625 49.632812 -54.5625 48.75 -54.5625 L 43.03125 -54.5625 C 42.320312 -54.445312 41.5 -53.914062 40.5625 -52.96875 C 40.5625 -52.851562 40.5625 -52.664062 40.5625 -52.40625 C 40.5625 -52.144531 40.535156 -51.863281 40.484375 -51.5625 C 40.304688 -49.976562 40.566406 -48.773438 41.265625 -47.953125 C 42.503906 -48.078125 43.359375 -48.375 43.828125 -48.84375 C 45.117188 -49.71875 46.671875 -49.65625 48.484375 -48.65625 C 48.773438 -48.425781 49.023438 -48.265625 49.234375 -48.171875 C 49.441406 -48.085938 49.570312 -48.015625 49.625 -47.953125 C 51.507812 -46.023438 51.773438 -44.382812 50.421875 -43.03125 C 49.597656 -42.207031 49.304688 -40.945312 49.546875 -39.25 C 49.597656 -39.007812 49.625 -38.769531 49.625 -38.53125 C 49.625 -38.300781 49.625 -38.128906 49.625 -38.015625 C 49.625 -37.546875 49.640625 -36.972656 49.671875 -36.296875 C 49.703125 -35.617188 49.75 -34.8125 49.8125 -33.875 C 50.039062 -30.351562 49.976562 -27.597656 49.625 -25.609375 C 48.863281 -24.140625 48.015625 -23.582031 47.078125 -23.9375 C 46.960938 -24.050781 46.832031 -24.179688 46.6875 -24.328125 C 46.539062 -24.472656 46.40625 -24.632812 46.28125 -24.8125 C 46.164062 -24.925781 46.003906 -25.101562 45.796875 -25.34375 C 45.597656 -25.582031 45.378906 -25.816406 45.140625 -26.046875 C 43.972656 -27.273438 42.976562 -27.953125 42.15625 -28.078125 C 41.625 -27.546875 40.945312 -27.28125 40.125 -27.28125 L 39.6875 -27.28125 L 39.6875 -24.8125 C 39.800781 -24.757812 40.003906 -24.644531 40.296875 -24.46875 C 40.597656 -24.289062 40.953125 -24.054688 41.359375 -23.765625 C 46.398438 -20.597656 49.070312 -18.160156 49.375 -16.453125 C 49.375 -15.453125 48.875 -14.628906 47.875 -13.984375 C 47.632812 -13.753906 47.398438 -13.640625 47.171875 -13.640625 C 46.929688 -13.640625 46.695312 -13.695312 46.46875 -13.8125 L 46.28125 -13.984375 C 44.644531 -15.742188 42.972656 -17.421875 41.265625 -19.015625 C 40.796875 -19.648438 40.125 -19.617188 39.25 -18.921875 C 39.070312 -18.742188 38.925781 -18.507812 38.8125 -18.21875 C 38.8125 -17.75 38.796875 -17.160156 38.765625 -16.453125 C 38.734375 -15.753906 38.6875 -14.992188 38.625 -14.171875 C 38.394531 -11.054688 38.457031 -8.5625 38.8125 -6.6875 C 39.800781 -0.875 39.890625 3.226562 39.078125 5.625 C 39.191406 6.6875 38.632812 7.273438 37.40625 7.390625 Z M 47.171875 5.8125 C 46.171875 6.457031 45.234375 6.601562 44.359375 6.25 C 43.585938 5.832031 43.9375 5.242188 45.40625 4.484375 C 45.519531 4.429688 45.664062 4.375 45.84375 4.3125 C 46.019531 4.25 46.164062 4.191406 46.28125 4.140625 C 47.226562 3.492188 48.519531 2.40625 50.15625 0.875 C 51.800781 -0.644531 53.828125 -2.578125 56.234375 -4.921875 C 57.285156 -6.160156 57.8125 -7.273438 57.8125 -8.265625 C 57.226562 -9.679688 56.46875 -10.003906 55.53125 -9.234375 C 55.46875 -9.179688 55.421875 -9.125 55.390625 -9.0625 C 55.367188 -9 55.296875 -8.941406 55.171875 -8.890625 L 54.5625 -8.265625 C 53.207031 -7.617188 52.207031 -7.769531 51.5625 -8.71875 C 51.332031 -9.125 51.21875 -9.53125 51.21875 -9.9375 L 51.21875 -11.53125 C 52.332031 -14.457031 53.050781 -17.859375 53.375 -21.734375 C 53.695312 -25.609375 53.648438 -29.921875 53.234375 -34.671875 C 53.179688 -35.253906 53.140625 -35.894531 53.109375 -36.59375 C 53.078125 -37.300781 53.003906 -38.066406 52.890625 -38.890625 C 52.890625 -39.660156 52.976562 -40.863281 53.15625 -42.5 C 53.625 -46.726562 53.390625 -49.722656 52.453125 -51.484375 C 52.390625 -51.597656 52.328125 -51.710938 52.265625 -51.828125 C 52.210938 -51.953125 52.15625 -52.039062 52.09375 -52.09375 L 52.890625 -52.96875 C 54.648438 -52.851562 56.03125 -52.5625 57.03125 -52.09375 C 57.90625 -52.09375 58.632812 -52.445312 59.21875 -53.15625 C 59.394531 -53.445312 59.484375 -53.625 59.484375 -53.6875 C 59.597656 -53.914062 59.816406 -54.289062 60.140625 -54.8125 C 60.460938 -55.34375 60.921875 -56.019531 61.515625 -56.84375 C 62.453125 -58.132812 62.597656 -59.3125 61.953125 -60.375 C 61.484375 -61.957031 60.222656 -62.628906 58.171875 -62.390625 C 57.234375 -62.273438 56.539062 -62.1875 56.09375 -62.125 C 55.65625 -62.070312 55.410156 -62.046875 55.359375 -62.046875 C 55.117188 -62.046875 54.878906 -62.03125 54.640625 -62 C 54.410156 -61.96875 54.175781 -61.921875 53.9375 -61.859375 C 53.644531 -61.804688 53.335938 -61.78125 53.015625 -61.78125 C 52.691406 -61.78125 52.382812 -61.78125 52.09375 -61.78125 C 49.507812 -63.125 48.335938 -64.351562 48.578125 -65.46875 L 48.578125 -65.640625 C 48.578125 -65.640625 49.320312 -65.640625 50.8125 -65.640625 C 52.3125 -65.640625 54.585938 -65.613281 57.640625 -65.5625 C 58.285156 -65.5 58.914062 -65.453125 59.53125 -65.421875 C 60.144531 -65.398438 60.6875 -65.359375 61.15625 -65.296875 C 63.914062 -65.296875 65.851562 -65.03125 66.96875 -64.5 C 68.664062 -64.5 70.601562 -65.054688 72.78125 -66.171875 C 74.769531 -67.640625 76.234375 -68.195312 77.171875 -67.84375 C 77.816406 -67.613281 78.550781 -67.054688 79.375 -66.171875 C 80.425781 -64.878906 80.984375 -64.03125 81.046875 -63.625 C 81.628906 -63.09375 81.597656 -62.414062 80.953125 -61.59375 C 80.785156 -61.425781 80.523438 -61.28125 80.171875 -61.15625 L 74.359375 -61.15625 C 71.484375 -61.039062 68.460938 -59.398438 65.296875 -56.234375 C 64.828125 -56.234375 64.445312 -55.878906 64.15625 -55.171875 C 64.09375 -54.765625 64.179688 -54.5625 64.421875 -54.5625 C 65.472656 -53.625 66.320312 -53.09375 66.96875 -52.96875 C 67.375 -53.144531 68.601562 -53.085938 70.65625 -52.796875 C 71.945312 -52.617188 73.035156 -52.675781 73.921875 -52.96875 C 76.910156 -54.675781 78.929688 -55.117188 79.984375 -54.296875 C 80.285156 -54.054688 81.082031 -52.882812 82.375 -50.78125 C 82.425781 -50.71875 82.46875 -50.65625 82.5 -50.59375 C 82.53125 -50.539062 82.570312 -50.484375 82.625 -50.421875 C 83.394531 -48.953125 83.394531 -47.835938 82.625 -47.078125 C 81.101562 -46.140625 80.285156 -44.675781 80.171875 -42.6875 L 80.171875 -13.28125 C 80.046875 -11.050781 79.78125 -9.675781 79.375 -9.15625 C 76.675781 -7.863281 76.320312 -6.191406 78.3125 -4.140625 C 78.4375 -4.015625 78.585938 -3.878906 78.765625 -3.734375 C 78.941406 -3.585938 79.144531 -3.425781 79.375 -3.25 L 80.171875 -2.46875 C 82.921875 -0.238281 84.003906 1.753906 83.421875 3.515625 C 83.015625 4.804688 82.019531 5.273438 80.4375 4.921875 C 79.726562 4.804688 79.082031 4.546875 78.5 4.140625 C 77.320312 2.898438 76.320312 1.796875 75.5 0.828125 C 74.675781 -0.128906 74.03125 -0.960938 73.5625 -1.671875 C 72.394531 -4.898438 70.460938 -6.804688 67.765625 -7.390625 C 67.296875 -9.796875 67.941406 -10.851562 69.703125 -10.5625 C 70.578125 -10.382812 71.601562 -9.914062 72.78125 -9.15625 C 73.25 -8.5625 73.976562 -8.738281 74.96875 -9.6875 L 75.234375 -9.9375 C 75.234375 -11.644531 74.648438 -12.734375 73.484375 -13.203125 C 73.304688 -13.253906 73.070312 -13.28125 72.78125 -13.28125 L 61.953125 -13.28125 C 61.953125 -12.875 61.992188 -12.40625 62.078125 -11.875 C 62.171875 -11.351562 62.273438 -10.738281 62.390625 -10.03125 C 62.804688 -7.6875 62.660156 -5.984375 61.953125 -4.921875 C 60.722656 -2.578125 58.257812 -0.113281 54.5625 2.46875 C 52.976562 3.519531 50.515625 4.632812 47.171875 5.8125 Z M 61.953125 -39.6875 L 71.015625 -39.6875 C 72.773438 -39.6875 73.890625 -40.097656 74.359375 -40.921875 C 74.472656 -41.148438 74.585938 -41.5 74.703125 -41.96875 C 74.828125 -42.445312 75.003906 -43.066406 75.234375 -43.828125 C 75.648438 -46.703125 75.445312 -48.429688 74.625 -49.015625 C 74.039062 -49.421875 72.3125 -49.625 69.4375 -49.625 L 61.953125 -49.625 C 60.421875 -48.8125 59.394531 -47.40625 58.875 -45.40625 C 58.8125 -45.113281 58.765625 -44.832031 58.734375 -44.5625 C 58.710938 -44.300781 58.703125 -44.054688 58.703125 -43.828125 C 58.816406 -41.773438 59.898438 -40.394531 61.953125 -39.6875 Z M 16.984375 1.3125 C 16.453125 4.957031 15.335938 6.78125 13.640625 6.78125 C 12.753906 6.65625 11.785156 6.035156 10.734375 4.921875 C 9.441406 1.640625 8.796875 -2.082031 8.796875 -6.25 C 8.910156 -7.425781 9 -8.394531 9.0625 -9.15625 C 9 -9.445312 8.9375 -9.796875 8.875 -10.203125 C 8.820312 -10.617188 8.769531 -11.117188 8.71875 -11.703125 C 8.070312 -16.398438 7.101562 -19.628906 5.8125 -21.390625 C 5.570312 -21.734375 5.304688 -22.050781 5.015625 -22.34375 C 4.722656 -22.644531 4.429688 -22.910156 4.140625 -23.140625 C 3.722656 -23.140625 3.8125 -23.609375 4.40625 -24.546875 C 4.75 -25.078125 4.921875 -25.164062 4.921875 -24.8125 C 5.390625 -24.695312 6.019531 -24.40625 6.8125 -23.9375 C 7.613281 -23.46875 8.597656 -22.851562 9.765625 -22.09375 C 9.941406 -21.96875 10.117188 -21.847656 10.296875 -21.734375 C 10.472656 -21.617188 10.617188 -21.53125 10.734375 -21.46875 C 11.785156 -21.53125 12.34375 -21.828125 12.40625 -22.359375 C 13.289062 -24.523438 14.210938 -26.5625 15.171875 -28.46875 C 16.140625 -30.375 17.125 -32.175781 18.125 -33.875 C 17.894531 -34.113281 17.570312 -34.378906 17.15625 -34.671875 C 16.75 -34.960938 16.25 -35.316406 15.65625 -35.734375 C 12.789062 -37.722656 10.972656 -39.421875 10.203125 -40.828125 L 9.9375 -41.359375 C 9.289062 -42.003906 7.828125 -42.648438 5.546875 -43.296875 C 5.015625 -43.472656 4.546875 -43.648438 4.140625 -43.828125 C 3.023438 -43.828125 2.320312 -44.265625 2.03125 -45.140625 C 1.789062 -46.023438 2.316406 -46.640625 3.609375 -46.984375 C 3.835938 -47.046875 4.054688 -47.078125 4.265625 -47.078125 C 4.472656 -47.078125 4.691406 -47.078125 4.921875 -47.078125 C 7.617188 -47.078125 10.789062 -46.050781 14.4375 -44 C 17.488281 -42.238281 18.71875 -40.800781 18.125 -39.6875 C 18.539062 -39.6875 19.039062 -39.773438 19.625 -39.953125 C 20.851562 -40.359375 21.644531 -40.210938 22 -39.515625 C 22.0625 -39.335938 22.148438 -39.128906 22.265625 -38.890625 C 22.617188 -38.242188 22.5 -37.394531 21.90625 -36.34375 C 21.613281 -35.632812 21.46875 -35.109375 21.46875 -34.765625 C 21.238281 -34.347656 20.769531 -33.257812 20.0625 -31.5 C 19.363281 -29.738281 18.394531 -27.304688 17.15625 -24.203125 C 16.394531 -22.148438 15.632812 -20.421875 14.875 -19.015625 C 13.46875 -15.367188 13.726562 -12.082031 15.65625 -9.15625 C 17.070312 -6.394531 17.515625 -2.90625 16.984375 1.3125 Z M 40.5625 -33.875 C 40.625 -32.351562 41.445312 -31.535156 43.03125 -31.421875 C 43.851562 -31.421875 44.351562 -32.035156 44.53125 -33.265625 C 44.582031 -33.441406 44.609375 -33.644531 44.609375 -33.875 L 44.609375 -41.359375 C 44.554688 -42.878906 43.738281 -43.703125 42.15625 -43.828125 C 41.21875 -43.828125 40.6875 -43.414062 40.5625 -42.59375 L 40.5625 -41.359375 C 40.15625 -40.953125 40.128906 -38.84375 40.484375 -35.03125 C 40.535156 -34.789062 40.5625 -34.566406 40.5625 -34.359375 C 40.5625 -34.160156 40.5625 -34 40.5625 -33.875 Z M 31.421875 -30.625 C 31.597656 -30.5625 31.859375 -30.53125 32.203125 -30.53125 C 33.203125 -30.53125 33.9375 -31.03125 34.40625 -32.03125 C 34.582031 -32.382812 34.671875 -32.738281 34.671875 -33.09375 C 35.378906 -34.4375 35.554688 -36.691406 35.203125 -39.859375 C 35.085938 -40.972656 34.910156 -41.738281 34.671875 -42.15625 C 34.671875 -43.207031 34.171875 -43.675781 33.171875 -43.5625 C 32.765625 -43.445312 32.441406 -43.269531 32.203125 -43.03125 C 30.910156 -43.03125 30.117188 -42.765625 29.828125 -42.234375 C 29.773438 -42.117188 29.75 -41.972656 29.75 -41.796875 C 29.75 -41.617188 29.75 -41.472656 29.75 -41.359375 C 30.625 -38.722656 30.625 -35.703125 29.75 -32.296875 C 29.75 -31.410156 30.304688 -30.851562 31.421875 -30.625 Z M 62.828125 -28.078125 C 64.535156 -27.546875 67.03125 -27.28125 70.3125 -27.28125 C 72.832031 -27.28125 74.328125 -27.691406 74.796875 -28.515625 C 75.085938 -29.273438 75.234375 -30.800781 75.234375 -33.09375 C 75.179688 -35.195312 73.773438 -36.3125 71.015625 -36.4375 L 61.953125 -36.4375 C 60.421875 -36.375 59.597656 -35.519531 59.484375 -33.875 C 59.078125 -31.351562 59.375 -29.742188 60.375 -29.046875 C 60.664062 -28.867188 61.015625 -28.691406 61.421875 -28.515625 C 61.835938 -28.335938 62.304688 -28.191406 62.828125 -28.078125 Z M 59.140625 -16.453125 C 59.367188 -16.398438 59.703125 -16.3125 60.140625 -16.1875 C 60.585938 -16.070312 61.191406 -15.925781 61.953125 -15.75 C 62.242188 -15.75 63.300781 -15.835938 65.125 -16.015625 C 69.164062 -16.367188 71.71875 -16.546875 72.78125 -16.546875 C 74.300781 -16.660156 75.117188 -17.21875 75.234375 -18.21875 C 75.703125 -19.445312 75.410156 -20.53125 74.359375 -21.46875 C 73.359375 -22.53125 72.535156 -23.085938 71.890625 -23.140625 C 68.898438 -24.671875 65.585938 -24.9375 61.953125 -23.9375 C 59.546875 -23.9375 58.222656 -22.9375 57.984375 -20.9375 C 57.929688 -20.644531 57.890625 -20.335938 57.859375 -20.015625 C 57.828125 -19.691406 57.8125 -19.359375 57.8125 -19.015625 C 57.8125 -17.773438 58.253906 -16.921875 59.140625 -16.453125 Z M 59.140625 -16.453125 "/></g></g></g><g fill="#b52414" fill-opacity="1"><g transform="translate(143.866729, 215.740621)"><g><path d="M 20.859375 -58.953125 C 18.515625 -58.191406 16.488281 -59.015625 14.78125 -61.421875 L 13.734375 -62.484375 C 13.960938 -63.597656 14.546875 -64.179688 15.484375 -64.234375 C 16.835938 -64.234375 18.566406 -64.25 20.671875 -64.28125 C 22.785156 -64.3125 25.222656 -64.359375 27.984375 -64.421875 C 33.378906 -64.535156 38.039062 -64.59375 41.96875 -64.59375 C 45.90625 -64.59375 49.132812 -64.472656 51.65625 -64.234375 C 52.1875 -64.117188 52.976562 -64.078125 54.03125 -64.109375 C 55.082031 -64.140625 56.429688 -64.210938 58.078125 -64.328125 C 59.078125 -64.441406 60 -64.484375 60.84375 -64.453125 C 61.695312 -64.429688 62.476562 -64.359375 63.1875 -64.234375 C 64.125 -64.234375 65.148438 -64.941406 66.265625 -66.359375 C 66.554688 -66.648438 66.816406 -66.925781 67.046875 -67.1875 C 67.285156 -67.445312 67.460938 -67.640625 67.578125 -67.765625 C 69.285156 -69.347656 71.34375 -69.347656 73.75 -67.765625 C 75.332031 -66.179688 76.617188 -64.421875 77.609375 -62.484375 C 77.960938 -61.722656 78.140625 -61.132812 78.140625 -60.71875 C 77.671875 -59.84375 76.703125 -59.519531 75.234375 -59.75 C 74.890625 -59.8125 74.582031 -59.84375 74.3125 -59.84375 C 74.050781 -59.84375 73.863281 -59.84375 73.75 -59.84375 C 70.988281 -60.78125 57.226562 -61.070312 32.46875 -60.71875 L 29.65625 -60.71875 C 29.476562 -60.65625 28.859375 -60.519531 27.796875 -60.3125 C 26.742188 -60.113281 25.28125 -59.867188 23.40625 -59.578125 C 22.875 -59.515625 22.390625 -59.425781 21.953125 -59.3125 C 21.515625 -59.195312 21.148438 -59.078125 20.859375 -58.953125 Z M 11.703125 4.75 C 10.410156 5.863281 9.03125 6.6875 7.5625 7.21875 L 5.8125 7.21875 C 5.21875 7.15625 4.921875 6.566406 4.921875 5.453125 C 4.921875 5.453125 4.953125 5.363281 5.015625 5.1875 C 5.078125 5.007812 5.164062 4.71875 5.28125 4.3125 C 5.394531 4.132812 5.570312 3.929688 5.8125 3.703125 C 8.625 1.171875 10.96875 -1.9375 12.84375 -5.625 C 14.132812 -8.09375 15.160156 -10.335938 15.921875 -12.359375 C 16.691406 -14.390625 17.367188 -16.546875 17.953125 -18.828125 C 18.535156 -21.117188 19.179688 -23.878906 19.890625 -27.109375 L 19.890625 -27.1875 C 19.890625 -30.0625 20.210938 -32.410156 20.859375 -34.234375 C 20.742188 -38.453125 20.128906 -41.382812 19.015625 -43.03125 C 18.421875 -44.207031 18.125 -45.703125 18.125 -47.515625 C 19.125 -49.335938 20.035156 -49.925781 20.859375 -49.28125 C 23.960938 -48.394531 29.125 -48.039062 36.34375 -48.21875 C 37.34375 -48.28125 38.238281 -48.3125 39.03125 -48.3125 C 39.820312 -48.3125 40.507812 -48.3125 41.09375 -48.3125 L 54.390625 -48.3125 C 58.492188 -48.425781 61.425781 -49.015625 63.1875 -50.078125 C 64.882812 -51.773438 66.613281 -52.15625 68.375 -51.21875 C 68.613281 -51.101562 68.878906 -50.941406 69.171875 -50.734375 C 69.460938 -50.523438 69.8125 -50.304688 70.21875 -50.078125 C 72.570312 -48.546875 73.6875 -46.929688 73.5625 -45.234375 C 73.507812 -44.878906 73.421875 -44.523438 73.296875 -44.171875 C 73.179688 -43.816406 73.035156 -43.4375 72.859375 -43.03125 C 71.984375 -42.15625 71.632812 -40.773438 71.8125 -38.890625 C 71.863281 -38.484375 71.90625 -38.101562 71.9375 -37.75 C 71.96875 -37.394531 71.984375 -37.101562 71.984375 -36.875 C 71.984375 -32.707031 71.691406 -29.476562 71.109375 -27.1875 C 70.046875 -24.4375 68.285156 -23.851562 65.828125 -25.4375 C 63.953125 -26.601562 61.3125 -27.1875 57.90625 -27.1875 L 30.453125 -27.1875 C 28.160156 -27.1875 26.660156 -26.71875 25.953125 -25.78125 C 25.660156 -25.375 25.132812 -24.378906 24.375 -22.796875 C 24.144531 -21.910156 23.789062 -20.585938 23.3125 -18.828125 C 21.726562 -12.609375 20.054688 -8.148438 18.296875 -5.453125 C 18.179688 -5.222656 18.125 -5.109375 18.125 -5.109375 C 15.664062 -0.179688 13.523438 3.101562 11.703125 4.75 Z M 27.890625 -31.59375 C 29.066406 -31.007812 30.828125 -30.71875 33.171875 -30.71875 C 33.640625 -30.71875 35.238281 -30.773438 37.96875 -30.890625 C 40.695312 -31.003906 44.554688 -31.179688 49.546875 -31.421875 C 50.773438 -31.472656 51.945312 -31.515625 53.0625 -31.546875 C 54.175781 -31.578125 55.203125 -31.59375 56.140625 -31.59375 C 59.773438 -31.59375 61.976562 -31.859375 62.75 -32.390625 C 63.5625 -33.035156 64 -34.878906 64.0625 -37.921875 L 64.0625 -40.484375 C 64 -42.066406 63.117188 -42.914062 61.421875 -43.03125 C 56.429688 -43.914062 48.863281 -44.269531 38.71875 -44.09375 C 37.539062 -44.03125 36.484375 -44 35.546875 -44 C 34.609375 -44 33.816406 -44 33.171875 -44 L 32.203125 -44 C 28.984375 -42.59375 27.222656 -40.507812 26.921875 -37.75 C 26.921875 -37.519531 26.960938 -37.195312 27.046875 -36.78125 C 27.140625 -36.375 27.25 -35.875 27.375 -35.28125 C 27.71875 -33.820312 27.890625 -32.59375 27.890625 -31.59375 Z M 27.890625 -31.59375 "/></g></g></g><g fill="#b52414" fill-opacity="1"><g transform="translate(143.866729, 293.303978)"><g><path d="M 16.71875 0.53125 C 16.65625 2.519531 15.863281 4.394531 14.34375 6.15625 L 11.875 6.15625 C 11.875 6.15625 11.816406 6.125 11.703125 6.0625 C 11.585938 6.007812 11.410156 5.953125 11.171875 5.890625 C 11.054688 5.660156 11 5.488281 11 5.375 C 10.175781 2.90625 10.175781 0.46875 11 -1.9375 C 11.40625 -5.21875 11.695312 -9.335938 11.875 -14.296875 C 12.050781 -19.253906 12.082031 -25.019531 11.96875 -31.59375 C 11.90625 -33.238281 11.875 -34.703125 11.875 -35.984375 C 11.875 -37.273438 11.875 -38.394531 11.875 -39.34375 C 11.875 -39.570312 11.875 -39.832031 11.875 -40.125 C 11.875 -40.414062 11.90625 -40.769531 11.96875 -41.1875 C 12.082031 -43.46875 11.757812 -44.992188 11 -45.765625 C 10.175781 -46.578125 10.175781 -47.394531 11 -48.21875 C 11.875 -48.925781 12.695312 -48.925781 13.46875 -48.21875 C 13.875 -48.101562 14.253906 -47.929688 14.609375 -47.703125 C 15.785156 -47.171875 16.753906 -46.523438 17.515625 -45.765625 C 18.160156 -45.765625 18.660156 -45.085938 19.015625 -43.734375 C 19.066406 -43.503906 19.109375 -43.300781 19.140625 -43.125 C 19.171875 -42.945312 19.1875 -42.769531 19.1875 -42.59375 C 18.1875 -40.1875 17.890625 -36.664062 18.296875 -32.03125 C 18.597656 -28.6875 18.597656 -26.253906 18.296875 -24.734375 L 18.296875 -10.90625 C 18.296875 -9.269531 18.914062 -8.273438 20.15625 -7.921875 C 20.445312 -7.859375 20.78125 -7.8125 21.15625 -7.78125 C 21.539062 -7.757812 21.96875 -7.75 22.4375 -7.75 L 36.171875 -7.75 C 38.867188 -7.75 40.539062 -8.332031 41.1875 -9.5 C 41.59375 -10.320312 41.796875 -11.613281 41.796875 -13.375 L 41.796875 -66.09375 C 41.796875 -66.851562 42.5625 -67.378906 44.09375 -67.671875 C 44.320312 -67.734375 44.523438 -67.765625 44.703125 -67.765625 C 44.878906 -67.765625 45.023438 -67.765625 45.140625 -67.765625 C 47.253906 -66.648438 48.835938 -65.5625 49.890625 -64.5 L 49.890625 -62.921875 C 48.304688 -61.691406 47.691406 -59.753906 48.046875 -57.109375 C 48.222656 -55.816406 48.3125 -55.023438 48.3125 -54.734375 C 48.3125 -41.242188 48.046875 -30.976562 47.515625 -23.9375 C 47.515625 -23.226562 47.546875 -22.332031 47.609375 -21.25 C 47.671875 -20.164062 47.757812 -18.890625 47.875 -17.421875 C 47.988281 -15.953125 48.085938 -14.660156 48.171875 -13.546875 C 48.265625 -12.429688 48.3125 -11.550781 48.3125 -10.90625 C 48.375 -10.257812 48.898438 -9.441406 49.890625 -8.453125 C 54.816406 -7.921875 61.035156 -8.179688 68.546875 -9.234375 C 70.078125 -9.359375 70.898438 -9.914062 71.015625 -10.90625 L 71.015625 -17.421875 C 70.722656 -19.242188 70.472656 -21.78125 70.265625 -25.03125 C 70.054688 -28.289062 69.894531 -32.265625 69.78125 -36.953125 C 69.726562 -38.953125 69.671875 -40.742188 69.609375 -42.328125 C 69.546875 -43.910156 69.457031 -45.316406 69.34375 -46.546875 C 68.9375 -47.953125 69.347656 -48.863281 70.578125 -49.28125 C 71.398438 -49.394531 72.101562 -49.304688 72.6875 -49.015625 C 73.863281 -48.953125 74.921875 -48.425781 75.859375 -47.4375 C 77.617188 -46.5 78.234375 -45.265625 77.703125 -43.734375 C 77.585938 -43.503906 77.53125 -43.390625 77.53125 -43.390625 C 76.414062 -42.273438 75.859375 -40.101562 75.859375 -36.875 C 75.972656 -35.582031 76.054688 -33.21875 76.109375 -29.78125 C 76.171875 -26.351562 76.234375 -21.796875 76.296875 -16.109375 C 76.296875 -13.992188 76.320312 -12.039062 76.375 -10.25 C 76.4375 -8.457031 76.523438 -6.800781 76.640625 -5.28125 C 77.460938 -2.9375 77.347656 -0.00390625 76.296875 3.515625 C 76.234375 3.578125 76.203125 3.664062 76.203125 3.78125 C 75.554688 4.25 74.765625 4.484375 73.828125 4.484375 C 73.003906 4.484375 72.476562 4.101562 72.25 3.34375 C 72.1875 3.28125 72.15625 3.160156 72.15625 2.984375 C 71.632812 2.347656 71.375 1.53125 71.375 0.53125 C 71.070312 -2.457031 70.394531 -4.070312 69.34375 -4.3125 C 69.164062 -4.375 68.898438 -4.40625 68.546875 -4.40625 C 66.671875 -4.40625 64.335938 -4.375 61.546875 -4.3125 C 58.765625 -4.25 55.554688 -4.160156 51.921875 -4.046875 C 48.285156 -3.929688 45.085938 -3.828125 42.328125 -3.734375 C 39.566406 -3.648438 37.25 -3.609375 35.375 -3.609375 L 26.40625 -3.609375 C 23.707031 -3.609375 21.5625 -3.34375 19.96875 -2.8125 C 19.851562 -2.757812 19.707031 -2.703125 19.53125 -2.640625 C 19.351562 -2.578125 19.148438 -2.488281 18.921875 -2.375 C 17.691406 -1.84375 16.988281 -1.195312 16.8125 -0.4375 C 16.75 -0.257812 16.71875 -0.0820312 16.71875 0.09375 C 16.71875 0.269531 16.71875 0.414062 16.71875 0.53125 Z M 16.71875 0.53125 "/></g></g></g></svg>